<svg xmlns="http://www.w3.org/2000/svg" width="89.505" height="37.794" viewBox="0 0 89.505 37.794"><defs><style>.a{fill:#ff8f63;}.b{fill:#111143;}.b,.d{stroke:#000;stroke-miterlimit:10;stroke-width:1.5px;}.c{fill:#fff;opacity:0.85;}.d{fill:none;}</style></defs><g transform="translate(-116.25 -227.04)"><rect class="a" width="88.005" height="18.559" rx="9.279" transform="translate(117 245.566)"/><path class="b" d="M150.909,271.63h9.246a1.349,1.349,0,0,1,1.349,1.349v1.635H149.55v-1.635a1.349,1.349,0,0,1,1.359-1.349Z" transform="translate(-21.575 -29.058)"/><path class="b" d="M236.833,274.4h6.086a.846.846,0,0,1,.846.846v.948H236v-.948a.846.846,0,0,1,.833-.846Z" transform="translate(-78.875 -30.894)"/><path class="b" d="M218.868,274.29h3.459a.674.674,0,0,1,.674.674v1.13h-4.8v-1.13a.674.674,0,0,1,.668-.674Z" transform="translate(-67.077 -30.821)"/><path class="b" d="M263.274,274.29h3.459a.674.674,0,0,1,.674.674v1.13H262.62v-1.13A.674.674,0,0,1,263.274,274.29Z" transform="translate(-96.519 -30.821)"/><rect class="b" width="3.591" height="7.782" transform="translate(132.166 234.79)"/><path class="b" d="M156.287,227.83h1.973a4.1,4.1,0,0,1,4.1,4.1h0a2.7,2.7,0,0,1-2.7,2.7h-4.8a2.7,2.7,0,0,1-2.7-2.7h0a4.1,4.1,0,0,1,4.117-4.1Z" transform="translate(-23.311 -0.027)"/><path class="b" d="M0,0H11.973V1.635a1.349,1.349,0,0,1-1.349,1.349H1.359A1.349,1.349,0,0,1,.01,1.635V0Z" transform="translate(195.028 245.566) rotate(180)"/><rect class="b" width="3.591" height="7.782" transform="translate(190.836 242.572) rotate(180)"/><path class="b" d="M2.684,0H7.5a2.7,2.7,0,0,1,2.7,2.7h0a4.1,4.1,0,0,1-4.12,4.1H4.1A4.1,4.1,0,0,1,0,2.7H0A2.7,2.7,0,0,1,2.7,0Z" transform="translate(194.131 234.591) rotate(180)"/><path class="c" d="M164.822,281.39,147.74,299.854l.03.094h7.222L172.162,281.4Z" transform="translate(-20.375 -35.527)"/><path class="c" d="M189.949,281.39,172.78,299.952h2.6l17.169-18.562Z" transform="translate(-36.972 -35.527)"/><path class="c" d="M292.349,281.39,275.18,299.952h9.667l17.169-18.562Z" transform="translate(-104.844 -35.527)"/><rect class="d" width="88.005" height="18.559" rx="9.279" transform="translate(117 245.526)"/></g></svg>