<svg xmlns="http://www.w3.org/2000/svg" width="147.5" height="73.012" viewBox="0 0 147.5 73.012"><defs><style>.a{fill:#111143;}.a,.b,.c,.d,.h{stroke:#000;stroke-miterlimit:10;stroke-width:1.5px;}.b{fill:#f35e32;}.c,.f{fill:#fc7142;}.d,.h{fill:none;}.e{fill:#ff8f63;}.g{fill:#fff;opacity:0.85;}.h{fill-rule:evenodd;}</style></defs><g transform="translate(-48.25 -160.75)"><path class="a" d="M189.056,300.123l.4.278,1.2-1.8.23-.343-6.813-4.74V271.077l5.984-4.188-.6-2.4-7.78,5.384v25.132Z" transform="translate(-87.201 -67.693)"/><rect class="a" width="3.592" height="7.18" transform="translate(65.756 163.892)"/><rect class="b" width="18.548" height="2.392" rx="1.196" transform="translate(67.548 161.5)"/><rect class="b" width="18.548" height="2.392" rx="1.196" transform="translate(49 161.5)"/><path class="a" d="M317.277,300.123l-.4.278-1.2-1.806-.23-.343,6.813-4.74V271.077l-5.984-4.188.6-2.4,7.78,5.384v25.132Z" transform="translate(-175.131 -67.693)"/><rect class="a" width="3.592" height="7.18" transform="translate(178.244 171.076) rotate(180)"/><rect class="b" width="18.548" height="2.392" rx="1.196" transform="translate(176.452 163.892) rotate(180)"/><rect class="b" width="18.548" height="2.392" rx="1.196" transform="translate(195 163.892) rotate(180)"/><rect class="a" width="3.592" height="7.18" transform="translate(120.204 205.78)"/><rect class="c" width="17.952" height="14.36" rx="4.98" transform="translate(113.024 212.96)"/><circle class="d" cx="3.592" cy="3.592" r="3.592" transform="translate(118.408 215.948)"/><circle class="a" cx="1.796" cy="1.796" r="1.796" transform="translate(120.204 217.744)"/><path class="e" d="M228.688,189.4l-24.148,26.1a7.816,7.816,0,0,0,.3.96l25.036-27.075Z" transform="translate(-102.233 -18.331)"/><path class="e" d="M82.608,189.43a4.8,4.8,0,0,0-4.8,4.8v1.851a4.167,4.167,0,0,0,4.144,4.13c5.826.038,23.648.555,29.474,1.049,2.276.2,5.713,1.96,6.892,3.91l.024.041a19.214,19.214,0,0,1,1.539,3.873l18.181-19.652Z" transform="translate(-18.936 -18.358)"/><path class="e" d="M324.469,189.43H300.413L268.3,224.138h2.889c6.1,0,13.757-3.17,14.737-9.171a42.694,42.694,0,0,1,1.08-5.322,22.9,22.9,0,0,1,1.714-4.431l.024-.041c1.179-1.95,4.62-3.715,6.892-3.91,5.826-.494,23.648-1.028,29.474-1.049a4.167,4.167,0,0,0,4.144-4.144v-1.851A4.8,4.8,0,0,0,324.469,189.43Z" transform="translate(-144.141 -18.358)"/><path class="e" d="M234.9,189.43,208.22,218.274c2.265,3.252,6.786,5.192,11.063,5.717l31.973-34.56Z" transform="translate(-104.652 -18.358)"/><path class="f" d="M221.617,189.43h-2.875L200.56,209.082l.175.559a42.931,42.931,0,0,1,1.08,5.322q.048.288.117.565l24.141-26.1Z" transform="translate(-99.617 -18.358)"/><path class="g" d="M221.617,189.43h-2.875L200.56,209.082l.175.559a42.931,42.931,0,0,1,1.08,5.322q.048.288.117.565l24.141-26.1Z" transform="translate(-99.617 -18.358)"/><path class="f" d="M230.476,189.43,205.44,216.505a8.357,8.357,0,0,0,.953,1.782l26.684-28.844Z" transform="translate(-102.824 -18.358)"/><path class="g" d="M230.476,189.43,205.44,216.505a8.357,8.357,0,0,0,.953,1.782l26.684-28.844Z" transform="translate(-102.824 -18.358)"/><path class="f" d="M272.473,189.43,240.5,223.99a19.131,19.131,0,0,0,2.32.144h7.2l32.123-34.7Z" transform="translate(-125.869 -18.358)"/><path class="g" d="M272.473,189.43,240.5,223.99a19.131,19.131,0,0,0,2.32.144h7.2l32.123-34.7Z" transform="translate(-125.869 -18.358)"/><path class="h" d="M140.936,189.41h58.328a4.8,4.8,0,0,1,4.8,4.8v1.851a4.168,4.168,0,0,1-4.144,4.144c-5.826.038-23.648.555-29.474,1.049-2.276.2-5.713,1.96-6.892,3.91l-.024.041a22.643,22.643,0,0,0-1.714,4.431,42.934,42.934,0,0,0-1.08,5.322c-.994,6-8.654,9.171-14.737,9.171h-10.11c-6.1,0-13.757-3.17-14.737-9.171a42.691,42.691,0,0,0-1.08-5.322,22.9,22.9,0,0,0-1.714-4.431l-.024-.041c-1.179-1.95-4.62-3.715-6.892-3.91-5.826-.494-23.648-1.028-29.474-1.049a4.168,4.168,0,0,1-4.157-4.154V194.2a4.8,4.8,0,0,1,4.8-4.8h58.328" transform="translate(-18.936 -18.338)"/></g></svg>