<?xml version="1.0" encoding="UTF-8" standalone="no"?>
<svg
   width="47.764"
   height="74.487"
   viewBox="0 0 47.764 74.487"
   version="1.1"
   id="svg25"
   sodipodi:docname="Icon material-phone-android.svg"
   inkscape:version="1.1.2 (b8e25be833, 2022-02-05)"
   xmlns:inkscape="http://www.inkscape.org/namespaces/inkscape"
   xmlns:sodipodi="http://sodipodi.sourceforge.net/DTD/sodipodi-0.dtd"
   xmlns="http://www.w3.org/2000/svg"
   xmlns:svg="http://www.w3.org/2000/svg">
  <sodipodi:namedview
     id="namedview27"
     pagecolor="#505050"
     bordercolor="#eeeeee"
     borderopacity="1"
     inkscape:pageshadow="0"
     inkscape:pageopacity="0"
     inkscape:pagecheckerboard="0"
     showgrid="false"
     inkscape:zoom="12.190047"
     inkscape:cx="41.058088"
     inkscape:cy="40.196729"
     inkscape:window-width="3840"
     inkscape:window-height="2054"
     inkscape:window-x="-11"
     inkscape:window-y="-11"
     inkscape:window-maximized="1"
     inkscape:current-layer="svg25" />
  <defs
     id="defs21">
    <style
       id="style19">.a{fill:#ff8f63;stroke:#000;}</style>
  </defs>
  <path
     class="a"
     d="M44.243,1.5H17.521A10.008,10.008,0,0,0,7.5,11.521V64.966A10.008,10.008,0,0,0,17.521,74.987H44.243A10.008,10.008,0,0,0,54.264,64.966V11.521A10.008,10.008,0,0,0,44.243,1.5ZM37.563,68.306H24.2v-3.34H37.563ZM48.419,58.285H13.346V11.521H48.419Z"
     transform="translate(-7 -1)"
     id="path23" />
  <path
     style="fill:#ffffff;fill-opacity:1;stroke-width:0.0410171"
     d="M 6.8703593,33.900609 V 11.0541 H 23.892443 40.914528 V 33.900609 56.747117 H 23.892443 6.8703593 Z"
     id="path1203" />
  <path
     style="fill:#ffffff;fill-opacity:1;stroke-width:0.0410171"
     d="m 17.739883,65.647821 v -1.148478 h 6.15256 6.152561 v 1.148478 1.148478 h -6.152561 -6.15256 z"
     id="path1242" />
</svg>
