%TF.GenerationSoftware,KiCad,Pcbnew,(6.0.2)*%
%TF.CreationDate,2022-02-24T16:18:32+02:00*%
%TF.ProjectId,PowerPCB,506f7765-7250-4434-922e-6b696361645f,rev?*%
%TF.SameCoordinates,Original*%
%TF.FileFunction,Soldermask,Top*%
%TF.FilePolarity,Negative*%
%FSLAX46Y46*%
G04 Gerber Fmt 4.6, Leading zero omitted, Abs format (unit mm)*
G04 Created by KiCad (PCBNEW (6.0.2)) date 2022-02-24 16:18:32*
%MOMM*%
%LPD*%
G01*
G04 APERTURE LIST*
G04 Aperture macros list*
%AMRoundRect*
0 Rectangle with rounded corners*
0 $1 Rounding radius*
0 $2 $3 $4 $5 $6 $7 $8 $9 X,Y pos of 4 corners*
0 Add a 4 corners polygon primitive as box body*
4,1,4,$2,$3,$4,$5,$6,$7,$8,$9,$2,$3,0*
0 Add four circle primitives for the rounded corners*
1,1,$1+$1,$2,$3*
1,1,$1+$1,$4,$5*
1,1,$1+$1,$6,$7*
1,1,$1+$1,$8,$9*
0 Add four rect primitives between the rounded corners*
20,1,$1+$1,$2,$3,$4,$5,0*
20,1,$1+$1,$4,$5,$6,$7,0*
20,1,$1+$1,$6,$7,$8,$9,0*
20,1,$1+$1,$8,$9,$2,$3,0*%
G04 Aperture macros list end*
%ADD10RoundRect,1.500000X-1.500000X-1.500000X1.500000X-1.500000X1.500000X1.500000X-1.500000X1.500000X0*%
%ADD11C,6.000000*%
%ADD12O,3.500000X1.500000*%
%ADD13O,1.500000X3.500000*%
%ADD14R,1.500000X4.000000*%
%ADD15R,4.600000X1.100000*%
%ADD16R,9.400000X10.800000*%
%ADD17R,1.700000X1.700000*%
%ADD18O,1.700000X1.700000*%
%ADD19O,1.600000X1.600000*%
%ADD20C,1.600000*%
%ADD21C,3.800000*%
%ADD22R,3.800000X3.800000*%
%ADD23R,2.200000X2.200000*%
%ADD24O,2.200000X2.200000*%
%ADD25RoundRect,0.250000X0.787500X1.025000X-0.787500X1.025000X-0.787500X-1.025000X0.787500X-1.025000X0*%
G04 APERTURE END LIST*
D10*
X100150000Y-67000000D03*
D11*
X107350000Y-67000000D03*
D12*
X179810000Y-61040000D03*
D13*
X182810000Y-65740000D03*
D14*
X176810000Y-65740000D03*
D12*
X179790000Y-86060000D03*
D13*
X182790000Y-90760000D03*
D14*
X176790000Y-90760000D03*
D15*
X163775000Y-89890000D03*
D16*
X154625000Y-87350000D03*
D15*
X163775000Y-87350000D03*
X163775000Y-84810000D03*
X152225000Y-71190000D03*
X152225000Y-68650000D03*
D16*
X161375000Y-68650000D03*
D15*
X152225000Y-66110000D03*
D17*
X176790000Y-74985000D03*
D18*
X176790000Y-77525000D03*
X176790000Y-80065000D03*
X110200000Y-77025000D03*
X110200000Y-79565000D03*
D17*
X110200000Y-82105000D03*
D19*
X120500000Y-84225000D03*
D20*
X120500000Y-71525000D03*
X125910000Y-84225000D03*
D19*
X125910000Y-71525000D03*
D21*
X108900000Y-90250000D03*
D22*
X103900000Y-90250000D03*
D23*
X131250000Y-83925000D03*
D24*
X131250000Y-73765000D03*
D25*
X139887500Y-92750000D03*
X146112500Y-92750000D03*
X146157500Y-85312500D03*
X139932500Y-85312500D03*
X139887500Y-77875000D03*
X146112500Y-77875000D03*
X139887500Y-63000000D03*
X146112500Y-63000000D03*
X146112500Y-70437500D03*
X139887500Y-70437500D03*
M02*
