%TF.GenerationSoftware,KiCad,Pcbnew,(6.0.2)*%
%TF.CreationDate,2022-02-24T16:18:32+02:00*%
%TF.ProjectId,PowerPCB,506f7765-7250-4434-922e-6b696361645f,rev?*%
%TF.SameCoordinates,Original*%
%TF.FileFunction,Copper,L1,Top*%
%TF.FilePolarity,Positive*%
%FSLAX46Y46*%
G04 Gerber Fmt 4.6, Leading zero omitted, Abs format (unit mm)*
G04 Created by KiCad (PCBNEW (6.0.2)) date 2022-02-24 16:18:32*
%MOMM*%
%LPD*%
G01*
G04 APERTURE LIST*
G04 Aperture macros list*
%AMRoundRect*
0 Rectangle with rounded corners*
0 $1 Rounding radius*
0 $2 $3 $4 $5 $6 $7 $8 $9 X,Y pos of 4 corners*
0 Add a 4 corners polygon primitive as box body*
4,1,4,$2,$3,$4,$5,$6,$7,$8,$9,$2,$3,0*
0 Add four circle primitives for the rounded corners*
1,1,$1+$1,$2,$3*
1,1,$1+$1,$4,$5*
1,1,$1+$1,$6,$7*
1,1,$1+$1,$8,$9*
0 Add four rect primitives between the rounded corners*
20,1,$1+$1,$2,$3,$4,$5,0*
20,1,$1+$1,$4,$5,$6,$7,0*
20,1,$1+$1,$6,$7,$8,$9,0*
20,1,$1+$1,$8,$9,$2,$3,0*%
G04 Aperture macros list end*
%TA.AperFunction,ComponentPad*%
%ADD10RoundRect,1.500000X-1.500000X-1.500000X1.500000X-1.500000X1.500000X1.500000X-1.500000X1.500000X0*%
%TD*%
%TA.AperFunction,ComponentPad*%
%ADD11C,6.000000*%
%TD*%
%TA.AperFunction,ComponentPad*%
%ADD12O,3.500000X1.500000*%
%TD*%
%TA.AperFunction,ComponentPad*%
%ADD13O,1.500000X3.500000*%
%TD*%
%TA.AperFunction,ComponentPad*%
%ADD14R,1.500000X4.000000*%
%TD*%
%TA.AperFunction,SMDPad,CuDef*%
%ADD15R,4.600000X1.100000*%
%TD*%
%TA.AperFunction,SMDPad,CuDef*%
%ADD16R,9.400000X10.800000*%
%TD*%
%TA.AperFunction,ComponentPad*%
%ADD17R,1.700000X1.700000*%
%TD*%
%TA.AperFunction,ComponentPad*%
%ADD18O,1.700000X1.700000*%
%TD*%
%TA.AperFunction,ComponentPad*%
%ADD19O,1.600000X1.600000*%
%TD*%
%TA.AperFunction,ComponentPad*%
%ADD20C,1.600000*%
%TD*%
%TA.AperFunction,ComponentPad*%
%ADD21C,3.800000*%
%TD*%
%TA.AperFunction,ComponentPad*%
%ADD22R,3.800000X3.800000*%
%TD*%
%TA.AperFunction,ComponentPad*%
%ADD23R,2.200000X2.200000*%
%TD*%
%TA.AperFunction,ComponentPad*%
%ADD24O,2.200000X2.200000*%
%TD*%
%TA.AperFunction,SMDPad,CuDef*%
%ADD25RoundRect,0.250000X0.787500X1.025000X-0.787500X1.025000X-0.787500X-1.025000X0.787500X-1.025000X0*%
%TD*%
%TA.AperFunction,ViaPad*%
%ADD26C,4.000000*%
%TD*%
%TA.AperFunction,Conductor*%
%ADD27C,2.000000*%
%TD*%
%TA.AperFunction,Conductor*%
%ADD28C,0.250000*%
%TD*%
G04 APERTURE END LIST*
D10*
X100150000Y-67000000D03*
D11*
X107350000Y-67000000D03*
D12*
X179810000Y-61040000D03*
D13*
X182810000Y-65740000D03*
D14*
X176810000Y-65740000D03*
D12*
X179790000Y-86060000D03*
D13*
X182790000Y-90760000D03*
D14*
X176790000Y-90760000D03*
D15*
X163775000Y-89890000D03*
D16*
X154625000Y-87350000D03*
D15*
X163775000Y-87350000D03*
X163775000Y-84810000D03*
X152225000Y-71190000D03*
X152225000Y-68650000D03*
D16*
X161375000Y-68650000D03*
D15*
X152225000Y-66110000D03*
D17*
X176790000Y-74985000D03*
D18*
X176790000Y-77525000D03*
X176790000Y-80065000D03*
X110200000Y-77025000D03*
X110200000Y-79565000D03*
D17*
X110200000Y-82105000D03*
D19*
X120500000Y-84225000D03*
D20*
X120500000Y-71525000D03*
X125910000Y-84225000D03*
D19*
X125910000Y-71525000D03*
D21*
X108900000Y-90250000D03*
D22*
X103900000Y-90250000D03*
D23*
X131250000Y-83925000D03*
D24*
X131250000Y-73765000D03*
D25*
X139887500Y-92750000D03*
X146112500Y-92750000D03*
X146157500Y-85312500D03*
X139932500Y-85312500D03*
X139887500Y-77875000D03*
X146112500Y-77875000D03*
X139887500Y-63000000D03*
X146112500Y-63000000D03*
X146112500Y-70437500D03*
X139887500Y-70437500D03*
D26*
X118000000Y-63000000D03*
X118000000Y-93000000D03*
X171000000Y-93000000D03*
X171000000Y-63000000D03*
D27*
X137685000Y-59750000D02*
X125910000Y-71525000D01*
X146112500Y-63000000D02*
X146000000Y-63000000D01*
X146000000Y-63000000D02*
X142750000Y-59750000D01*
X142750000Y-59750000D02*
X137685000Y-59750000D01*
X142550000Y-74000000D02*
X146112500Y-70437500D01*
X131485000Y-74000000D02*
X142550000Y-74000000D01*
X131250000Y-73765000D02*
X131485000Y-74000000D01*
X133675000Y-81500000D02*
X142487500Y-81500000D01*
X131250000Y-83925000D02*
X133675000Y-81500000D01*
X142487500Y-81500000D02*
X146112500Y-77875000D01*
X126890000Y-79565000D02*
X131250000Y-83925000D01*
X110200000Y-79565000D02*
X126890000Y-79565000D01*
X146112500Y-63112500D02*
X146112500Y-63000000D01*
X152225000Y-66110000D02*
X149110000Y-66110000D01*
X149110000Y-66110000D02*
X146112500Y-63112500D01*
X161375000Y-69375000D02*
X161375000Y-68650000D01*
X176790000Y-77525000D02*
X169525000Y-77525000D01*
X169525000Y-77525000D02*
X161375000Y-69375000D01*
X163775000Y-84275000D02*
X163775000Y-84810000D01*
X149250000Y-79750000D02*
X159250000Y-79750000D01*
X146157500Y-82842500D02*
X149250000Y-79750000D01*
X146157500Y-85312500D02*
X146157500Y-82842500D01*
X159250000Y-79750000D02*
X163775000Y-84275000D01*
X110200000Y-88800000D02*
X110200000Y-82105000D01*
X108900000Y-90100000D02*
X110200000Y-88800000D01*
X108900000Y-90250000D02*
X108900000Y-90100000D01*
X110200000Y-69850000D02*
X107350000Y-67000000D01*
X110200000Y-77025000D02*
X110200000Y-69850000D01*
X172045000Y-84810000D02*
X176790000Y-80065000D01*
X163775000Y-84810000D02*
X172045000Y-84810000D01*
X163775000Y-87350000D02*
X173380000Y-87350000D01*
X173380000Y-87350000D02*
X176790000Y-90760000D01*
X154625000Y-87350000D02*
X163775000Y-87350000D01*
X149225000Y-92750000D02*
X154625000Y-87350000D01*
X146112500Y-92750000D02*
X149225000Y-92750000D01*
X146112500Y-77302500D02*
X152225000Y-71190000D01*
X146112500Y-77875000D02*
X146112500Y-77302500D01*
X125910000Y-71525000D02*
X120500000Y-71525000D01*
X147900000Y-68650000D02*
X146112500Y-70437500D01*
X152225000Y-68650000D02*
X147900000Y-68650000D01*
X161375000Y-68650000D02*
X152225000Y-68650000D01*
D28*
X176790000Y-65760000D02*
X176810000Y-65740000D01*
D27*
X176790000Y-74985000D02*
X176790000Y-65760000D01*
D28*
X176810000Y-74965000D02*
X176790000Y-74985000D01*
%TA.AperFunction,Conductor*%
G36*
X136554552Y-58528002D02*
G01*
X136601045Y-58581658D01*
X136611149Y-58651932D01*
X136583794Y-58713977D01*
X136569819Y-58730990D01*
X136561551Y-58740108D01*
X125322064Y-69979595D01*
X125259752Y-70013621D01*
X125232969Y-70016500D01*
X120438999Y-70016500D01*
X120436491Y-70016702D01*
X120436486Y-70016702D01*
X120263076Y-70030654D01*
X120263071Y-70030655D01*
X120258035Y-70031060D01*
X120253127Y-70032266D01*
X120253124Y-70032266D01*
X120027208Y-70087756D01*
X120022294Y-70088963D01*
X120017642Y-70090938D01*
X120017638Y-70090939D01*
X119881829Y-70148587D01*
X119798844Y-70183812D01*
X119756056Y-70210757D01*
X119597712Y-70310472D01*
X119597709Y-70310474D01*
X119593433Y-70313167D01*
X119589639Y-70316512D01*
X119415142Y-70470350D01*
X119415139Y-70470353D01*
X119411345Y-70473698D01*
X119408135Y-70477606D01*
X119408134Y-70477607D01*
X119311475Y-70595283D01*
X119257266Y-70661278D01*
X119135159Y-70871078D01*
X119133346Y-70875801D01*
X119056102Y-71077031D01*
X119048167Y-71097702D01*
X118998526Y-71335320D01*
X118987514Y-71577817D01*
X118988095Y-71582837D01*
X118988095Y-71582841D01*
X119012350Y-71792462D01*
X119015415Y-71818956D01*
X119016791Y-71823820D01*
X119016792Y-71823823D01*
X119029145Y-71867477D01*
X119081510Y-72052532D01*
X119083644Y-72057108D01*
X119083646Y-72057114D01*
X119174233Y-72251379D01*
X119184099Y-72272536D01*
X119320544Y-72473307D01*
X119487332Y-72649681D01*
X119491358Y-72652759D01*
X119491359Y-72652760D01*
X119676154Y-72794047D01*
X119676158Y-72794050D01*
X119680174Y-72797120D01*
X119684632Y-72799510D01*
X119684633Y-72799511D01*
X119776335Y-72848681D01*
X119894109Y-72911831D01*
X120123631Y-72990862D01*
X120222978Y-73008022D01*
X120358926Y-73031504D01*
X120358932Y-73031505D01*
X120362836Y-73032179D01*
X120366797Y-73032359D01*
X120366798Y-73032359D01*
X120390506Y-73033436D01*
X120390525Y-73033436D01*
X120391925Y-73033500D01*
X125885984Y-73033500D01*
X125889502Y-73033549D01*
X125984150Y-73036193D01*
X125984153Y-73036193D01*
X125989205Y-73036334D01*
X126067098Y-73025941D01*
X126073639Y-73025242D01*
X126102332Y-73022933D01*
X126146923Y-73019346D01*
X126146927Y-73019345D01*
X126151965Y-73018940D01*
X126183878Y-73011101D01*
X126197258Y-73008574D01*
X126229820Y-73004229D01*
X126234661Y-73002768D01*
X126234663Y-73002767D01*
X126305029Y-72981522D01*
X126311392Y-72979781D01*
X126387706Y-72961037D01*
X126417952Y-72948199D01*
X126430763Y-72943561D01*
X126457362Y-72935530D01*
X126462208Y-72934067D01*
X126466756Y-72931849D01*
X126466763Y-72931846D01*
X126532818Y-72899629D01*
X126538820Y-72896893D01*
X126583504Y-72877925D01*
X126611156Y-72866188D01*
X126638956Y-72848681D01*
X126650860Y-72842055D01*
X126680388Y-72827654D01*
X126744600Y-72782357D01*
X126750086Y-72778699D01*
X126812286Y-72739529D01*
X126812287Y-72739528D01*
X126816567Y-72736833D01*
X126820356Y-72733492D01*
X126820362Y-72733488D01*
X126841217Y-72715102D01*
X126851912Y-72706656D01*
X126854863Y-72704574D01*
X126878747Y-72687726D01*
X126900250Y-72668091D01*
X126939966Y-72628375D01*
X126945736Y-72622956D01*
X126994858Y-72579650D01*
X126994861Y-72579647D01*
X126998655Y-72576302D01*
X127025179Y-72544011D01*
X127033449Y-72534892D01*
X128058746Y-71509595D01*
X138342001Y-71509595D01*
X138342338Y-71516114D01*
X138352257Y-71611706D01*
X138355149Y-71625100D01*
X138406588Y-71779284D01*
X138412761Y-71792462D01*
X138498063Y-71930307D01*
X138507099Y-71941708D01*
X138621829Y-72056239D01*
X138633240Y-72065251D01*
X138771243Y-72150316D01*
X138784424Y-72156463D01*
X138938710Y-72207638D01*
X138952086Y-72210505D01*
X139046438Y-72220172D01*
X139052854Y-72220500D01*
X139615385Y-72220500D01*
X139630624Y-72216025D01*
X139631829Y-72214635D01*
X139633500Y-72206952D01*
X139633500Y-72202384D01*
X140141500Y-72202384D01*
X140145975Y-72217623D01*
X140147365Y-72218828D01*
X140155048Y-72220499D01*
X140722095Y-72220499D01*
X140728614Y-72220162D01*
X140824206Y-72210243D01*
X140837600Y-72207351D01*
X140991784Y-72155912D01*
X141004962Y-72149739D01*
X141142807Y-72064437D01*
X141154208Y-72055401D01*
X141268739Y-71940671D01*
X141277751Y-71929260D01*
X141362816Y-71791257D01*
X141368963Y-71778076D01*
X141420138Y-71623790D01*
X141423005Y-71610414D01*
X141432672Y-71516062D01*
X141433000Y-71509646D01*
X141433000Y-70709615D01*
X141428525Y-70694376D01*
X141427135Y-70693171D01*
X141419452Y-70691500D01*
X140159615Y-70691500D01*
X140144376Y-70695975D01*
X140143171Y-70697365D01*
X140141500Y-70705048D01*
X140141500Y-72202384D01*
X139633500Y-72202384D01*
X139633500Y-70709615D01*
X139629025Y-70694376D01*
X139627635Y-70693171D01*
X139619952Y-70691500D01*
X138360116Y-70691500D01*
X138344877Y-70695975D01*
X138343672Y-70697365D01*
X138342001Y-70705048D01*
X138342001Y-71509595D01*
X128058746Y-71509595D01*
X129402956Y-70165385D01*
X138342000Y-70165385D01*
X138346475Y-70180624D01*
X138347865Y-70181829D01*
X138355548Y-70183500D01*
X139615385Y-70183500D01*
X139630624Y-70179025D01*
X139631829Y-70177635D01*
X139633500Y-70169952D01*
X139633500Y-70165385D01*
X140141500Y-70165385D01*
X140145975Y-70180624D01*
X140147365Y-70181829D01*
X140155048Y-70183500D01*
X141414884Y-70183500D01*
X141430123Y-70179025D01*
X141431328Y-70177635D01*
X141432999Y-70169952D01*
X141432999Y-69365405D01*
X141432662Y-69358886D01*
X141422743Y-69263294D01*
X141419851Y-69249900D01*
X141368412Y-69095716D01*
X141362239Y-69082538D01*
X141276937Y-68944693D01*
X141267901Y-68933292D01*
X141153171Y-68818761D01*
X141141760Y-68809749D01*
X141003757Y-68724684D01*
X140990576Y-68718537D01*
X140836290Y-68667362D01*
X140822914Y-68664495D01*
X140728562Y-68654828D01*
X140722145Y-68654500D01*
X140159615Y-68654500D01*
X140144376Y-68658975D01*
X140143171Y-68660365D01*
X140141500Y-68668048D01*
X140141500Y-70165385D01*
X139633500Y-70165385D01*
X139633500Y-68672616D01*
X139629025Y-68657377D01*
X139627635Y-68656172D01*
X139619952Y-68654501D01*
X139052905Y-68654501D01*
X139046386Y-68654838D01*
X138950794Y-68664757D01*
X138937400Y-68667649D01*
X138783216Y-68719088D01*
X138770038Y-68725261D01*
X138632193Y-68810563D01*
X138620792Y-68819599D01*
X138506261Y-68934329D01*
X138497249Y-68945740D01*
X138412184Y-69083743D01*
X138406037Y-69096924D01*
X138354862Y-69251210D01*
X138351995Y-69264586D01*
X138342328Y-69358938D01*
X138342000Y-69365355D01*
X138342000Y-70165385D01*
X129402956Y-70165385D01*
X135496246Y-64072095D01*
X138342001Y-64072095D01*
X138342338Y-64078614D01*
X138352257Y-64174206D01*
X138355149Y-64187600D01*
X138406588Y-64341784D01*
X138412761Y-64354962D01*
X138498063Y-64492807D01*
X138507099Y-64504208D01*
X138621829Y-64618739D01*
X138633240Y-64627751D01*
X138771243Y-64712816D01*
X138784424Y-64718963D01*
X138938710Y-64770138D01*
X138952086Y-64773005D01*
X139046438Y-64782672D01*
X139052854Y-64783000D01*
X139615385Y-64783000D01*
X139630624Y-64778525D01*
X139631829Y-64777135D01*
X139633500Y-64769452D01*
X139633500Y-64764884D01*
X140141500Y-64764884D01*
X140145975Y-64780123D01*
X140147365Y-64781328D01*
X140155048Y-64782999D01*
X140722095Y-64782999D01*
X140728614Y-64782662D01*
X140824206Y-64772743D01*
X140837600Y-64769851D01*
X140991784Y-64718412D01*
X141004962Y-64712239D01*
X141142807Y-64626937D01*
X141154208Y-64617901D01*
X141268739Y-64503171D01*
X141277751Y-64491760D01*
X141362816Y-64353757D01*
X141368963Y-64340576D01*
X141420138Y-64186290D01*
X141423005Y-64172914D01*
X141432672Y-64078562D01*
X141433000Y-64072146D01*
X141433000Y-63272115D01*
X141428525Y-63256876D01*
X141427135Y-63255671D01*
X141419452Y-63254000D01*
X140159615Y-63254000D01*
X140144376Y-63258475D01*
X140143171Y-63259865D01*
X140141500Y-63267548D01*
X140141500Y-64764884D01*
X139633500Y-64764884D01*
X139633500Y-63272115D01*
X139629025Y-63256876D01*
X139627635Y-63255671D01*
X139619952Y-63254000D01*
X138360116Y-63254000D01*
X138344877Y-63258475D01*
X138343672Y-63259865D01*
X138342001Y-63267548D01*
X138342001Y-64072095D01*
X135496246Y-64072095D01*
X138272936Y-61295405D01*
X138335248Y-61261379D01*
X138362031Y-61258500D01*
X138440359Y-61258500D01*
X138508480Y-61278502D01*
X138554973Y-61332158D01*
X138565077Y-61402432D01*
X138535583Y-61467012D01*
X138529531Y-61473519D01*
X138506261Y-61496829D01*
X138497249Y-61508240D01*
X138412184Y-61646243D01*
X138406037Y-61659424D01*
X138354862Y-61813710D01*
X138351995Y-61827086D01*
X138342328Y-61921438D01*
X138342000Y-61927855D01*
X138342000Y-62727885D01*
X138346475Y-62743124D01*
X138347865Y-62744329D01*
X138355548Y-62746000D01*
X141414884Y-62746000D01*
X141430123Y-62741525D01*
X141431328Y-62740135D01*
X141432999Y-62732452D01*
X141432999Y-61927905D01*
X141432662Y-61921386D01*
X141422743Y-61825794D01*
X141419851Y-61812400D01*
X141368412Y-61658216D01*
X141362239Y-61645038D01*
X141276937Y-61507193D01*
X141267900Y-61495791D01*
X141245743Y-61473672D01*
X141211665Y-61411389D01*
X141216668Y-61340569D01*
X141259166Y-61283697D01*
X141325665Y-61258829D01*
X141334762Y-61258500D01*
X142072969Y-61258500D01*
X142141090Y-61278502D01*
X142162064Y-61295405D01*
X144529595Y-63662936D01*
X144563621Y-63725248D01*
X144566500Y-63752031D01*
X144566500Y-64075400D01*
X144566837Y-64078646D01*
X144566837Y-64078650D01*
X144576752Y-64174206D01*
X144577474Y-64181166D01*
X144633450Y-64348946D01*
X144726522Y-64499348D01*
X144851697Y-64624305D01*
X144857927Y-64628145D01*
X144857928Y-64628146D01*
X144995288Y-64712816D01*
X145002262Y-64717115D01*
X145082005Y-64743564D01*
X145163611Y-64770632D01*
X145163613Y-64770632D01*
X145170139Y-64772797D01*
X145176975Y-64773497D01*
X145176978Y-64773498D01*
X145220031Y-64777909D01*
X145274600Y-64783500D01*
X145597969Y-64783500D01*
X145666090Y-64803502D01*
X145687064Y-64820405D01*
X147802743Y-66936084D01*
X147836769Y-66998396D01*
X147831704Y-67069211D01*
X147789157Y-67126047D01*
X147723753Y-67150773D01*
X147691571Y-67153362D01*
X147663077Y-67155654D01*
X147663073Y-67155655D01*
X147658035Y-67156060D01*
X147626122Y-67163899D01*
X147612742Y-67166426D01*
X147580180Y-67170771D01*
X147575339Y-67172232D01*
X147575337Y-67172233D01*
X147504971Y-67193478D01*
X147498610Y-67195219D01*
X147422294Y-67213963D01*
X147417634Y-67215941D01*
X147392049Y-67226801D01*
X147379239Y-67231438D01*
X147347792Y-67240933D01*
X147343244Y-67243151D01*
X147343237Y-67243154D01*
X147277182Y-67275371D01*
X147271180Y-67278107D01*
X147226496Y-67297075D01*
X147198844Y-67308812D01*
X147174532Y-67324123D01*
X147171044Y-67326319D01*
X147159140Y-67332945D01*
X147129612Y-67347346D01*
X147125475Y-67350265D01*
X147125474Y-67350265D01*
X147065403Y-67392641D01*
X147059914Y-67396301D01*
X146997714Y-67435471D01*
X146993433Y-67438167D01*
X146989644Y-67441508D01*
X146989638Y-67441512D01*
X146968783Y-67459898D01*
X146958088Y-67468344D01*
X146931253Y-67487274D01*
X146909750Y-67506909D01*
X146870034Y-67546625D01*
X146864264Y-67552044D01*
X146815142Y-67595350D01*
X146815139Y-67595353D01*
X146811345Y-67598698D01*
X146808135Y-67602606D01*
X146808134Y-67602607D01*
X146784821Y-67630989D01*
X146776551Y-67640108D01*
X145799564Y-68617095D01*
X145737252Y-68651121D01*
X145710469Y-68654000D01*
X145274600Y-68654000D01*
X145271354Y-68654337D01*
X145271350Y-68654337D01*
X145175692Y-68664262D01*
X145175688Y-68664263D01*
X145168834Y-68664974D01*
X145162298Y-68667155D01*
X145162296Y-68667155D01*
X145030194Y-68711228D01*
X145001054Y-68720950D01*
X144850652Y-68814022D01*
X144725695Y-68939197D01*
X144721855Y-68945427D01*
X144721854Y-68945428D01*
X144639142Y-69079612D01*
X144632885Y-69089762D01*
X144577203Y-69257639D01*
X144566500Y-69362100D01*
X144566500Y-69797969D01*
X144546498Y-69866090D01*
X144529595Y-69887064D01*
X141962064Y-72454595D01*
X141899752Y-72488621D01*
X141872969Y-72491500D01*
X132282125Y-72491500D01*
X132214004Y-72471498D01*
X132206206Y-72465704D01*
X132206141Y-72465794D01*
X132202141Y-72462888D01*
X132198376Y-72459672D01*
X131982502Y-72327384D01*
X131977932Y-72325491D01*
X131977928Y-72325489D01*
X131753164Y-72232389D01*
X131753162Y-72232388D01*
X131748591Y-72230495D01*
X131653384Y-72207638D01*
X131507216Y-72172546D01*
X131507210Y-72172545D01*
X131502403Y-72171391D01*
X131250000Y-72151526D01*
X130997597Y-72171391D01*
X130992790Y-72172545D01*
X130992784Y-72172546D01*
X130846616Y-72207638D01*
X130751409Y-72230495D01*
X130746838Y-72232388D01*
X130746836Y-72232389D01*
X130522072Y-72325489D01*
X130522068Y-72325491D01*
X130517498Y-72327384D01*
X130301624Y-72459672D01*
X130109102Y-72624102D01*
X129944672Y-72816624D01*
X129812384Y-73032498D01*
X129715495Y-73266409D01*
X129656391Y-73512597D01*
X129636526Y-73765000D01*
X129656391Y-74017403D01*
X129657545Y-74022210D01*
X129657546Y-74022216D01*
X129676588Y-74101531D01*
X129715495Y-74263591D01*
X129717388Y-74268162D01*
X129717389Y-74268164D01*
X129725729Y-74288297D01*
X129812384Y-74497502D01*
X129944672Y-74713376D01*
X130109102Y-74905898D01*
X130301624Y-75070328D01*
X130517498Y-75202616D01*
X130522068Y-75204509D01*
X130522072Y-75204511D01*
X130626161Y-75247626D01*
X130654469Y-75263936D01*
X130661156Y-75269048D01*
X130665174Y-75272120D01*
X130669626Y-75274507D01*
X130669632Y-75274511D01*
X130716676Y-75299735D01*
X130726255Y-75304871D01*
X130734401Y-75309239D01*
X130740126Y-75312504D01*
X130807358Y-75353221D01*
X130837817Y-75365527D01*
X130850158Y-75371307D01*
X130879109Y-75386831D01*
X130883890Y-75388477D01*
X130883894Y-75388479D01*
X130953401Y-75412412D01*
X130959579Y-75414722D01*
X130973962Y-75420533D01*
X131032429Y-75444155D01*
X131037369Y-75445277D01*
X131037368Y-75445277D01*
X131064460Y-75451432D01*
X131077559Y-75455163D01*
X131108631Y-75465862D01*
X131186100Y-75479243D01*
X131192504Y-75480523D01*
X131269144Y-75497935D01*
X131301953Y-75499999D01*
X131315453Y-75501585D01*
X131347836Y-75507179D01*
X131351793Y-75507359D01*
X131351796Y-75507359D01*
X131375506Y-75508436D01*
X131375525Y-75508436D01*
X131376925Y-75508500D01*
X131433107Y-75508500D01*
X131441018Y-75508749D01*
X131511412Y-75513178D01*
X131552991Y-75509101D01*
X131565287Y-75508500D01*
X142525984Y-75508500D01*
X142529502Y-75508549D01*
X142624150Y-75511193D01*
X142624153Y-75511193D01*
X142629205Y-75511334D01*
X142707098Y-75500941D01*
X142713639Y-75500242D01*
X142742332Y-75497933D01*
X142786923Y-75494346D01*
X142786927Y-75494345D01*
X142791965Y-75493940D01*
X142823878Y-75486101D01*
X142837258Y-75483574D01*
X142869820Y-75479229D01*
X142874661Y-75477768D01*
X142874663Y-75477767D01*
X142945029Y-75456522D01*
X142951392Y-75454781D01*
X142965027Y-75451432D01*
X143027706Y-75436037D01*
X143057952Y-75423199D01*
X143070763Y-75418561D01*
X143097362Y-75410530D01*
X143102208Y-75409067D01*
X143106756Y-75406849D01*
X143106763Y-75406846D01*
X143172818Y-75374629D01*
X143178820Y-75371893D01*
X143228978Y-75350602D01*
X143251156Y-75341188D01*
X143278956Y-75323681D01*
X143290860Y-75317055D01*
X143320388Y-75302654D01*
X143384600Y-75257357D01*
X143390086Y-75253699D01*
X143452286Y-75214529D01*
X143452287Y-75214528D01*
X143456567Y-75211833D01*
X143460356Y-75208492D01*
X143460362Y-75208488D01*
X143481217Y-75190102D01*
X143491912Y-75181656D01*
X143494863Y-75179574D01*
X143518747Y-75162726D01*
X143540250Y-75143091D01*
X143579966Y-75103375D01*
X143585736Y-75097956D01*
X143634858Y-75054650D01*
X143634861Y-75054647D01*
X143638655Y-75051302D01*
X143665179Y-75019011D01*
X143673449Y-75009892D01*
X146425436Y-72257905D01*
X146487748Y-72223879D01*
X146514531Y-72221000D01*
X146950400Y-72221000D01*
X146953646Y-72220663D01*
X146953650Y-72220663D01*
X147049308Y-72210738D01*
X147049312Y-72210737D01*
X147056166Y-72210026D01*
X147062702Y-72207845D01*
X147062704Y-72207845D01*
X147216998Y-72156368D01*
X147223946Y-72154050D01*
X147374348Y-72060978D01*
X147499305Y-71935803D01*
X147541422Y-71867477D01*
X147588275Y-71791468D01*
X147588276Y-71791466D01*
X147592115Y-71785238D01*
X147647797Y-71617361D01*
X147652367Y-71572763D01*
X147652909Y-71567469D01*
X147658500Y-71512900D01*
X147658500Y-71077031D01*
X147678502Y-71008910D01*
X147695405Y-70987936D01*
X148487936Y-70195405D01*
X148550248Y-70161379D01*
X148577031Y-70158500D01*
X149398464Y-70158500D01*
X149466585Y-70178502D01*
X149513078Y-70232158D01*
X149523182Y-70302432D01*
X149499289Y-70360065D01*
X149474385Y-70393295D01*
X149423255Y-70529684D01*
X149416500Y-70591866D01*
X149416500Y-71788134D01*
X149416869Y-71791528D01*
X149417528Y-71797595D01*
X149405001Y-71867477D01*
X149381360Y-71900299D01*
X145205389Y-76076270D01*
X145156170Y-76106699D01*
X145001054Y-76158450D01*
X144850652Y-76251522D01*
X144725695Y-76376697D01*
X144632885Y-76527262D01*
X144577203Y-76695139D01*
X144566500Y-76799600D01*
X144566500Y-77235469D01*
X144546498Y-77303590D01*
X144529595Y-77324564D01*
X141899564Y-79954595D01*
X141837252Y-79988621D01*
X141810469Y-79991500D01*
X133699016Y-79991500D01*
X133695498Y-79991451D01*
X133600850Y-79988807D01*
X133600847Y-79988807D01*
X133595795Y-79988666D01*
X133517902Y-79999059D01*
X133511361Y-79999758D01*
X133482668Y-80002067D01*
X133438077Y-80005654D01*
X133438073Y-80005655D01*
X133433035Y-80006060D01*
X133401122Y-80013899D01*
X133387742Y-80016426D01*
X133355180Y-80020771D01*
X133350339Y-80022232D01*
X133350337Y-80022233D01*
X133279971Y-80043478D01*
X133273610Y-80045219D01*
X133197294Y-80063963D01*
X133192634Y-80065941D01*
X133167049Y-80076801D01*
X133154239Y-80081438D01*
X133122792Y-80090933D01*
X133118244Y-80093151D01*
X133118237Y-80093154D01*
X133052182Y-80125371D01*
X133046180Y-80128107D01*
X133001496Y-80147074D01*
X132973844Y-80158812D01*
X132949532Y-80174123D01*
X132946044Y-80176319D01*
X132934140Y-80182945D01*
X132904612Y-80197346D01*
X132900475Y-80200265D01*
X132900474Y-80200265D01*
X132840403Y-80242641D01*
X132834914Y-80246301D01*
X132772714Y-80285471D01*
X132768433Y-80288167D01*
X132764644Y-80291508D01*
X132764638Y-80291512D01*
X132743783Y-80309898D01*
X132733088Y-80318344D01*
X132706253Y-80337274D01*
X132684750Y-80356909D01*
X132645034Y-80396625D01*
X132639264Y-80402044D01*
X132590142Y-80445350D01*
X132590139Y-80445353D01*
X132586345Y-80448698D01*
X132583135Y-80452606D01*
X132583134Y-80452607D01*
X132559821Y-80480989D01*
X132551551Y-80490108D01*
X131339095Y-81702564D01*
X131276783Y-81736590D01*
X131205968Y-81731525D01*
X131160905Y-81702564D01*
X128405436Y-78947095D01*
X138342001Y-78947095D01*
X138342338Y-78953614D01*
X138352257Y-79049206D01*
X138355149Y-79062600D01*
X138406588Y-79216784D01*
X138412761Y-79229962D01*
X138498063Y-79367807D01*
X138507099Y-79379208D01*
X138621829Y-79493739D01*
X138633240Y-79502751D01*
X138771243Y-79587816D01*
X138784424Y-79593963D01*
X138938710Y-79645138D01*
X138952086Y-79648005D01*
X139046438Y-79657672D01*
X139052854Y-79658000D01*
X139615385Y-79658000D01*
X139630624Y-79653525D01*
X139631829Y-79652135D01*
X139633500Y-79644452D01*
X139633500Y-79639884D01*
X140141500Y-79639884D01*
X140145975Y-79655123D01*
X140147365Y-79656328D01*
X140155048Y-79657999D01*
X140722095Y-79657999D01*
X140728614Y-79657662D01*
X140824206Y-79647743D01*
X140837600Y-79644851D01*
X140991784Y-79593412D01*
X141004962Y-79587239D01*
X141142807Y-79501937D01*
X141154208Y-79492901D01*
X141268739Y-79378171D01*
X141277751Y-79366760D01*
X141362816Y-79228757D01*
X141368963Y-79215576D01*
X141420138Y-79061290D01*
X141423005Y-79047914D01*
X141432672Y-78953562D01*
X141433000Y-78947146D01*
X141433000Y-78147115D01*
X141428525Y-78131876D01*
X141427135Y-78130671D01*
X141419452Y-78129000D01*
X140159615Y-78129000D01*
X140144376Y-78133475D01*
X140143171Y-78134865D01*
X140141500Y-78142548D01*
X140141500Y-79639884D01*
X139633500Y-79639884D01*
X139633500Y-78147115D01*
X139629025Y-78131876D01*
X139627635Y-78130671D01*
X139619952Y-78129000D01*
X138360116Y-78129000D01*
X138344877Y-78133475D01*
X138343672Y-78134865D01*
X138342001Y-78142548D01*
X138342001Y-78947095D01*
X128405436Y-78947095D01*
X127973675Y-78515334D01*
X127971221Y-78512812D01*
X127906138Y-78443988D01*
X127906135Y-78443986D01*
X127902668Y-78440319D01*
X127840239Y-78392589D01*
X127835108Y-78388448D01*
X127779133Y-78340809D01*
X127779132Y-78340808D01*
X127775280Y-78337530D01*
X127770955Y-78334911D01*
X127770950Y-78334907D01*
X127747176Y-78320509D01*
X127735929Y-78312837D01*
X127709826Y-78292880D01*
X127640592Y-78255757D01*
X127634868Y-78252493D01*
X127567642Y-78211779D01*
X127537181Y-78199472D01*
X127524841Y-78193692D01*
X127495891Y-78178169D01*
X127491110Y-78176523D01*
X127491106Y-78176521D01*
X127421599Y-78152588D01*
X127415421Y-78150278D01*
X127347266Y-78122742D01*
X127347267Y-78122742D01*
X127342571Y-78120845D01*
X127310539Y-78113568D01*
X127297441Y-78109837D01*
X127266369Y-78099138D01*
X127188900Y-78085757D01*
X127182496Y-78084477D01*
X127105856Y-78067065D01*
X127073047Y-78065001D01*
X127059547Y-78063415D01*
X127027164Y-78057821D01*
X127023207Y-78057641D01*
X127023204Y-78057641D01*
X126999494Y-78056564D01*
X126999475Y-78056564D01*
X126998075Y-78056500D01*
X126941892Y-78056500D01*
X126933980Y-78056251D01*
X126928386Y-78055899D01*
X126863587Y-78051822D01*
X126824545Y-78055650D01*
X126822008Y-78055899D01*
X126809712Y-78056500D01*
X111565224Y-78056500D01*
X111497103Y-78036498D01*
X111450610Y-77982842D01*
X111440506Y-77912568D01*
X111465127Y-77853973D01*
X111472120Y-77844826D01*
X111586831Y-77630891D01*
X111596474Y-77602885D01*
X138342000Y-77602885D01*
X138346475Y-77618124D01*
X138347865Y-77619329D01*
X138355548Y-77621000D01*
X139615385Y-77621000D01*
X139630624Y-77616525D01*
X139631829Y-77615135D01*
X139633500Y-77607452D01*
X139633500Y-77602885D01*
X140141500Y-77602885D01*
X140145975Y-77618124D01*
X140147365Y-77619329D01*
X140155048Y-77621000D01*
X141414884Y-77621000D01*
X141430123Y-77616525D01*
X141431328Y-77615135D01*
X141432999Y-77607452D01*
X141432999Y-76802905D01*
X141432662Y-76796386D01*
X141422743Y-76700794D01*
X141419851Y-76687400D01*
X141368412Y-76533216D01*
X141362239Y-76520038D01*
X141276937Y-76382193D01*
X141267901Y-76370792D01*
X141153171Y-76256261D01*
X141141760Y-76247249D01*
X141003757Y-76162184D01*
X140990576Y-76156037D01*
X140836290Y-76104862D01*
X140822914Y-76101995D01*
X140728562Y-76092328D01*
X140722145Y-76092000D01*
X140159615Y-76092000D01*
X140144376Y-76096475D01*
X140143171Y-76097865D01*
X140141500Y-76105548D01*
X140141500Y-77602885D01*
X139633500Y-77602885D01*
X139633500Y-76110116D01*
X139629025Y-76094877D01*
X139627635Y-76093672D01*
X139619952Y-76092001D01*
X139052905Y-76092001D01*
X139046386Y-76092338D01*
X138950794Y-76102257D01*
X138937400Y-76105149D01*
X138783216Y-76156588D01*
X138770038Y-76162761D01*
X138632193Y-76248063D01*
X138620792Y-76257099D01*
X138506261Y-76371829D01*
X138497249Y-76383240D01*
X138412184Y-76521243D01*
X138406037Y-76534424D01*
X138354862Y-76688710D01*
X138351995Y-76702086D01*
X138342328Y-76796438D01*
X138342000Y-76802855D01*
X138342000Y-77602885D01*
X111596474Y-77602885D01*
X111665862Y-77401369D01*
X111707179Y-77162164D01*
X111708500Y-77133075D01*
X111708500Y-69874016D01*
X111708549Y-69870498D01*
X111711193Y-69775850D01*
X111711193Y-69775847D01*
X111711334Y-69770795D01*
X111700941Y-69692902D01*
X111700241Y-69686353D01*
X111694346Y-69613077D01*
X111694345Y-69613073D01*
X111693940Y-69608035D01*
X111686101Y-69576122D01*
X111683573Y-69562738D01*
X111679898Y-69535194D01*
X111679229Y-69530180D01*
X111677767Y-69525337D01*
X111656522Y-69454971D01*
X111654781Y-69448608D01*
X111637244Y-69377209D01*
X111636037Y-69372294D01*
X111623199Y-69342048D01*
X111618561Y-69329237D01*
X111610530Y-69302638D01*
X111609067Y-69297792D01*
X111606849Y-69293244D01*
X111606846Y-69293237D01*
X111574629Y-69227182D01*
X111571893Y-69221180D01*
X111543162Y-69153495D01*
X111541188Y-69148844D01*
X111523681Y-69121044D01*
X111517052Y-69109134D01*
X111511097Y-69096924D01*
X111502654Y-69079612D01*
X111457357Y-69015400D01*
X111453699Y-69009914D01*
X111414529Y-68947714D01*
X111414528Y-68947713D01*
X111411833Y-68943433D01*
X111408492Y-68939644D01*
X111408488Y-68939638D01*
X111390102Y-68918783D01*
X111381656Y-68908088D01*
X111365009Y-68884490D01*
X111362726Y-68881253D01*
X111343091Y-68859750D01*
X111303375Y-68820034D01*
X111297956Y-68814264D01*
X111254650Y-68765142D01*
X111254647Y-68765139D01*
X111251302Y-68761345D01*
X111219011Y-68734821D01*
X111209892Y-68726551D01*
X110715283Y-68231942D01*
X110681257Y-68169630D01*
X110686748Y-68097690D01*
X110690175Y-68088764D01*
X110691361Y-68085674D01*
X110786541Y-67730459D01*
X110832306Y-67441512D01*
X110843555Y-67370489D01*
X110843556Y-67370481D01*
X110844069Y-67367241D01*
X110863315Y-67000000D01*
X110844069Y-66632759D01*
X110786541Y-66269541D01*
X110691361Y-65914326D01*
X110559573Y-65571006D01*
X110468071Y-65391424D01*
X110394119Y-65246284D01*
X110394115Y-65246277D01*
X110392620Y-65243343D01*
X110337779Y-65158894D01*
X110194134Y-64937700D01*
X110192332Y-64934925D01*
X109960902Y-64649133D01*
X109700867Y-64389098D01*
X109415075Y-64157668D01*
X109283304Y-64072095D01*
X109109427Y-63959178D01*
X109109424Y-63959176D01*
X109106658Y-63957380D01*
X109103724Y-63955885D01*
X109103717Y-63955881D01*
X108781934Y-63791925D01*
X108778994Y-63790427D01*
X108531135Y-63695283D01*
X108438764Y-63659825D01*
X108438762Y-63659824D01*
X108435674Y-63658639D01*
X108080459Y-63563459D01*
X107887442Y-63532888D01*
X107720489Y-63506445D01*
X107720481Y-63506444D01*
X107717241Y-63505931D01*
X107350000Y-63486685D01*
X106982759Y-63505931D01*
X106979519Y-63506444D01*
X106979511Y-63506445D01*
X106812558Y-63532888D01*
X106619541Y-63563459D01*
X106264326Y-63658639D01*
X106261238Y-63659824D01*
X106261236Y-63659825D01*
X106168865Y-63695283D01*
X105921006Y-63790427D01*
X105918066Y-63791925D01*
X105596284Y-63955881D01*
X105596277Y-63955885D01*
X105593343Y-63957380D01*
X105590577Y-63959176D01*
X105590574Y-63959178D01*
X105416636Y-64072134D01*
X105284925Y-64157668D01*
X104999133Y-64389098D01*
X104739098Y-64649133D01*
X104507668Y-64934925D01*
X104505866Y-64937700D01*
X104362222Y-65158894D01*
X104307380Y-65243343D01*
X104305885Y-65246277D01*
X104305881Y-65246284D01*
X104231929Y-65391424D01*
X104140427Y-65571006D01*
X104008639Y-65914326D01*
X103913459Y-66269541D01*
X103912944Y-66272793D01*
X103912942Y-66272802D01*
X103908448Y-66301178D01*
X103878035Y-66365331D01*
X103817767Y-66402858D01*
X103746777Y-66401844D01*
X103687606Y-66362611D01*
X103659038Y-66297615D01*
X103657999Y-66281467D01*
X103657999Y-65389086D01*
X103657939Y-65386328D01*
X103655399Y-65328145D01*
X103654683Y-65321028D01*
X103612001Y-65051547D01*
X103610022Y-65042977D01*
X103530496Y-64782857D01*
X103527345Y-64774647D01*
X103412387Y-64528118D01*
X103408124Y-64520428D01*
X103259976Y-64292300D01*
X103254686Y-64285281D01*
X103076217Y-64079976D01*
X103070024Y-64073783D01*
X102864719Y-63895314D01*
X102857700Y-63890024D01*
X102629572Y-63741876D01*
X102621882Y-63737613D01*
X102375353Y-63622655D01*
X102367143Y-63619504D01*
X102107023Y-63539978D01*
X102098453Y-63537999D01*
X101828956Y-63495315D01*
X101821872Y-63494601D01*
X101763669Y-63492060D01*
X101760917Y-63492000D01*
X100422115Y-63492000D01*
X100406876Y-63496475D01*
X100405671Y-63497865D01*
X100404000Y-63505548D01*
X100404000Y-70489884D01*
X100408475Y-70505123D01*
X100409865Y-70506328D01*
X100417548Y-70507999D01*
X101760915Y-70507999D01*
X101763672Y-70507939D01*
X101821855Y-70505399D01*
X101828972Y-70504683D01*
X102098453Y-70462001D01*
X102107023Y-70460022D01*
X102367143Y-70380496D01*
X102375353Y-70377345D01*
X102621882Y-70262387D01*
X102629572Y-70258124D01*
X102857700Y-70109976D01*
X102864719Y-70104686D01*
X103070024Y-69926217D01*
X103076217Y-69920024D01*
X103254686Y-69714719D01*
X103259976Y-69707700D01*
X103408124Y-69479572D01*
X103412387Y-69471882D01*
X103527345Y-69225353D01*
X103530496Y-69217143D01*
X103610022Y-68957023D01*
X103612001Y-68948453D01*
X103654685Y-68678956D01*
X103655399Y-68671872D01*
X103657940Y-68613669D01*
X103658000Y-68610917D01*
X103658000Y-67718536D01*
X103678002Y-67650415D01*
X103731658Y-67603922D01*
X103801932Y-67593818D01*
X103866512Y-67623312D01*
X103904896Y-67683038D01*
X103908449Y-67698827D01*
X103912941Y-67727193D01*
X103912944Y-67727206D01*
X103913459Y-67730459D01*
X104008639Y-68085674D01*
X104009824Y-68088760D01*
X104009825Y-68088764D01*
X104040867Y-68169630D01*
X104140427Y-68428994D01*
X104141925Y-68431934D01*
X104291383Y-68725261D01*
X104307380Y-68756657D01*
X104309176Y-68759423D01*
X104309178Y-68759426D01*
X104347998Y-68819204D01*
X104507668Y-69065075D01*
X104739098Y-69350867D01*
X104999133Y-69610902D01*
X105284925Y-69842332D01*
X105287700Y-69844134D01*
X105553432Y-70016702D01*
X105593342Y-70042620D01*
X105596276Y-70044115D01*
X105596283Y-70044119D01*
X105861052Y-70179025D01*
X105921006Y-70209573D01*
X106095980Y-70276739D01*
X106252309Y-70336748D01*
X106264326Y-70341361D01*
X106619541Y-70436541D01*
X106812558Y-70467112D01*
X106979511Y-70493555D01*
X106979519Y-70493556D01*
X106982759Y-70494069D01*
X107350000Y-70513315D01*
X107717241Y-70494069D01*
X107720481Y-70493556D01*
X107720489Y-70493555D01*
X107887442Y-70467112D01*
X108080459Y-70436541D01*
X108435674Y-70341361D01*
X108447692Y-70336748D01*
X108518454Y-70331007D01*
X108581942Y-70365283D01*
X108654595Y-70437936D01*
X108688621Y-70500248D01*
X108691500Y-70527031D01*
X108691500Y-77086001D01*
X108691702Y-77088509D01*
X108691702Y-77088514D01*
X108703170Y-77231044D01*
X108706060Y-77266965D01*
X108707266Y-77271873D01*
X108707266Y-77271876D01*
X108737846Y-77396377D01*
X108763963Y-77502706D01*
X108765938Y-77507358D01*
X108765939Y-77507362D01*
X108808425Y-77607452D01*
X108858812Y-77726156D01*
X108861510Y-77730440D01*
X108976203Y-77912568D01*
X108988167Y-77931567D01*
X109028367Y-77977166D01*
X109145350Y-78109858D01*
X109145353Y-78109861D01*
X109148698Y-78113655D01*
X109152606Y-78116865D01*
X109152607Y-78116866D01*
X109249860Y-78196750D01*
X109289803Y-78255445D01*
X109291673Y-78326417D01*
X109253209Y-78388629D01*
X109248714Y-78392592D01*
X109115142Y-78510350D01*
X109115139Y-78510353D01*
X109111345Y-78513698D01*
X109108135Y-78517606D01*
X109108134Y-78517607D01*
X109002671Y-78646001D01*
X108957266Y-78701278D01*
X108934666Y-78740108D01*
X108839297Y-78903969D01*
X108835159Y-78911078D01*
X108833346Y-78915801D01*
X108759892Y-79107158D01*
X108748167Y-79137702D01*
X108747133Y-79142652D01*
X108747132Y-79142655D01*
X108700096Y-79367807D01*
X108698526Y-79375320D01*
X108687514Y-79617817D01*
X108688095Y-79622837D01*
X108688095Y-79622841D01*
X108708828Y-79802025D01*
X108715415Y-79858956D01*
X108716791Y-79863820D01*
X108716792Y-79863823D01*
X108719557Y-79873595D01*
X108781510Y-80092532D01*
X108783644Y-80097108D01*
X108783646Y-80097114D01*
X108874295Y-80291512D01*
X108884099Y-80312536D01*
X108886940Y-80316717D01*
X108886941Y-80316718D01*
X108900911Y-80337274D01*
X109020544Y-80513307D01*
X109024023Y-80516986D01*
X109024027Y-80516991D01*
X109118874Y-80617289D01*
X109151146Y-80680527D01*
X109144106Y-80751174D01*
X109102891Y-80804687D01*
X108986739Y-80891739D01*
X108899385Y-81008295D01*
X108848255Y-81144684D01*
X108841500Y-81206866D01*
X108841500Y-81414624D01*
X108826545Y-81474164D01*
X108813169Y-81499109D01*
X108734138Y-81728631D01*
X108717257Y-81826362D01*
X108693907Y-81961550D01*
X108692821Y-81967836D01*
X108691500Y-81996925D01*
X108691500Y-87737614D01*
X108671498Y-87805735D01*
X108617842Y-87852228D01*
X108581294Y-87862620D01*
X108447800Y-87879484D01*
X108154261Y-87954851D01*
X108150592Y-87956304D01*
X108150591Y-87956304D01*
X107876157Y-88064960D01*
X107876152Y-88064962D01*
X107872483Y-88066415D01*
X107606910Y-88212416D01*
X107361729Y-88390550D01*
X107140808Y-88598008D01*
X107035026Y-88725877D01*
X106999723Y-88768551D01*
X106947630Y-88831520D01*
X106785242Y-89087402D01*
X106768916Y-89122097D01*
X106673372Y-89325140D01*
X106656206Y-89361619D01*
X106562555Y-89649846D01*
X106561812Y-89653742D01*
X106561811Y-89653745D01*
X106557767Y-89674945D01*
X106525354Y-89738111D01*
X106463936Y-89773726D01*
X106393014Y-89770482D01*
X106335104Y-89729409D01*
X106308592Y-89663548D01*
X106307999Y-89651334D01*
X106307999Y-88305331D01*
X106307629Y-88298510D01*
X106302105Y-88247648D01*
X106298479Y-88232396D01*
X106253324Y-88111946D01*
X106244786Y-88096351D01*
X106168285Y-87994276D01*
X106155724Y-87981715D01*
X106053649Y-87905214D01*
X106038054Y-87896676D01*
X105917606Y-87851522D01*
X105902351Y-87847895D01*
X105851486Y-87842369D01*
X105844672Y-87842000D01*
X104172115Y-87842000D01*
X104156876Y-87846475D01*
X104155671Y-87847865D01*
X104154000Y-87855548D01*
X104154000Y-92639884D01*
X104158475Y-92655123D01*
X104159865Y-92656328D01*
X104167548Y-92657999D01*
X105844669Y-92657999D01*
X105851490Y-92657629D01*
X105902352Y-92652105D01*
X105917604Y-92648479D01*
X106038054Y-92603324D01*
X106053649Y-92594786D01*
X106155724Y-92518285D01*
X106168285Y-92505724D01*
X106244786Y-92403649D01*
X106253324Y-92388054D01*
X106298478Y-92267606D01*
X106302105Y-92252351D01*
X106307631Y-92201486D01*
X106308000Y-92194672D01*
X106308000Y-90848668D01*
X106328002Y-90780547D01*
X106381658Y-90734054D01*
X106451932Y-90723950D01*
X106516512Y-90753444D01*
X106554896Y-90813170D01*
X106557767Y-90825056D01*
X106562555Y-90850154D01*
X106563782Y-90853930D01*
X106654037Y-91131704D01*
X106656206Y-91138381D01*
X106657893Y-91141967D01*
X106657895Y-91141971D01*
X106687364Y-91204595D01*
X106785242Y-91412598D01*
X106947630Y-91668480D01*
X106950149Y-91671525D01*
X106950152Y-91671529D01*
X107006070Y-91739121D01*
X107140808Y-91901992D01*
X107361729Y-92109450D01*
X107606910Y-92287584D01*
X107610379Y-92289491D01*
X107610382Y-92289493D01*
X107765787Y-92374928D01*
X107872483Y-92433585D01*
X107876152Y-92435038D01*
X107876157Y-92435040D01*
X108150591Y-92543696D01*
X108154261Y-92545149D01*
X108447800Y-92620516D01*
X108748470Y-92658500D01*
X109051530Y-92658500D01*
X109352200Y-92620516D01*
X109645739Y-92545149D01*
X109649409Y-92543696D01*
X109923843Y-92435040D01*
X109923848Y-92435038D01*
X109927517Y-92433585D01*
X110034213Y-92374928D01*
X110189618Y-92289493D01*
X110189621Y-92289491D01*
X110193090Y-92287584D01*
X110438271Y-92109450D01*
X110659192Y-91901992D01*
X110793930Y-91739121D01*
X110849848Y-91671529D01*
X110849851Y-91671525D01*
X110852370Y-91668480D01*
X111014758Y-91412598D01*
X111112636Y-91204595D01*
X111142105Y-91141971D01*
X111142107Y-91141967D01*
X111143794Y-91138381D01*
X111145964Y-91131704D01*
X111236218Y-90853930D01*
X111237445Y-90850154D01*
X111294233Y-90552462D01*
X111313262Y-90250000D01*
X111294233Y-89947538D01*
X111289950Y-89925086D01*
X111296835Y-89854425D01*
X111320084Y-89817168D01*
X111321011Y-89816139D01*
X111324681Y-89812668D01*
X111372411Y-89750239D01*
X111376552Y-89745108D01*
X111424191Y-89689133D01*
X111424192Y-89689132D01*
X111427470Y-89685280D01*
X111430089Y-89680955D01*
X111430093Y-89680950D01*
X111444491Y-89657176D01*
X111452163Y-89645929D01*
X111472120Y-89619826D01*
X111509243Y-89550592D01*
X111512507Y-89544868D01*
X111550601Y-89481968D01*
X111553221Y-89477642D01*
X111555116Y-89472953D01*
X111555119Y-89472946D01*
X111565533Y-89447172D01*
X111571312Y-89434836D01*
X111584440Y-89410351D01*
X111584442Y-89410347D01*
X111586831Y-89405891D01*
X111612405Y-89331619D01*
X111614715Y-89325439D01*
X111642263Y-89257257D01*
X111642264Y-89257254D01*
X111644156Y-89252571D01*
X111651436Y-89220529D01*
X111655169Y-89207425D01*
X111664216Y-89181149D01*
X111665862Y-89176369D01*
X111666722Y-89171389D01*
X111666725Y-89171378D01*
X111679238Y-89098935D01*
X111680530Y-89092467D01*
X111696815Y-89020788D01*
X111696816Y-89020779D01*
X111697935Y-89015855D01*
X111699999Y-88983049D01*
X111701586Y-88969545D01*
X111707179Y-88937164D01*
X111707359Y-88933204D01*
X111708436Y-88909494D01*
X111708436Y-88909475D01*
X111708500Y-88908075D01*
X111708500Y-88851892D01*
X111708749Y-88843980D01*
X111712860Y-88778641D01*
X111713178Y-88773587D01*
X111709101Y-88732006D01*
X111708500Y-88719711D01*
X111708500Y-86384595D01*
X138387001Y-86384595D01*
X138387338Y-86391114D01*
X138397257Y-86486706D01*
X138400149Y-86500100D01*
X138451588Y-86654284D01*
X138457761Y-86667462D01*
X138543063Y-86805307D01*
X138552099Y-86816708D01*
X138666829Y-86931239D01*
X138678240Y-86940251D01*
X138816243Y-87025316D01*
X138829424Y-87031463D01*
X138983710Y-87082638D01*
X138997086Y-87085505D01*
X139091438Y-87095172D01*
X139097854Y-87095500D01*
X139660385Y-87095500D01*
X139675624Y-87091025D01*
X139676829Y-87089635D01*
X139678500Y-87081952D01*
X139678500Y-87077384D01*
X140186500Y-87077384D01*
X140190975Y-87092623D01*
X140192365Y-87093828D01*
X140200048Y-87095499D01*
X140767095Y-87095499D01*
X140773614Y-87095162D01*
X140869206Y-87085243D01*
X140882600Y-87082351D01*
X141036784Y-87030912D01*
X141049962Y-87024739D01*
X141187807Y-86939437D01*
X141199208Y-86930401D01*
X141313739Y-86815671D01*
X141322751Y-86804260D01*
X141407816Y-86666257D01*
X141413963Y-86653076D01*
X141465138Y-86498790D01*
X141468005Y-86485414D01*
X141477672Y-86391062D01*
X141478000Y-86384646D01*
X141478000Y-85584615D01*
X141473525Y-85569376D01*
X141472135Y-85568171D01*
X141464452Y-85566500D01*
X140204615Y-85566500D01*
X140189376Y-85570975D01*
X140188171Y-85572365D01*
X140186500Y-85580048D01*
X140186500Y-87077384D01*
X139678500Y-87077384D01*
X139678500Y-85584615D01*
X139674025Y-85569376D01*
X139672635Y-85568171D01*
X139664952Y-85566500D01*
X138405116Y-85566500D01*
X138389877Y-85570975D01*
X138388672Y-85572365D01*
X138387001Y-85580048D01*
X138387001Y-86384595D01*
X111708500Y-86384595D01*
X111708500Y-84491522D01*
X119217273Y-84491522D01*
X119264764Y-84668761D01*
X119268510Y-84679053D01*
X119360586Y-84876511D01*
X119366069Y-84886007D01*
X119491028Y-85064467D01*
X119498084Y-85072875D01*
X119652125Y-85226916D01*
X119660533Y-85233972D01*
X119838993Y-85358931D01*
X119848489Y-85364414D01*
X120045947Y-85456490D01*
X120056239Y-85460236D01*
X120228503Y-85506394D01*
X120242599Y-85506058D01*
X120246000Y-85498116D01*
X120246000Y-85492967D01*
X120754000Y-85492967D01*
X120757973Y-85506498D01*
X120766522Y-85507727D01*
X120943761Y-85460236D01*
X120954053Y-85456490D01*
X121151511Y-85364414D01*
X121161007Y-85358931D01*
X121339467Y-85233972D01*
X121347875Y-85226916D01*
X121501916Y-85072875D01*
X121508972Y-85064467D01*
X121633931Y-84886007D01*
X121639414Y-84876511D01*
X121731490Y-84679053D01*
X121735236Y-84668761D01*
X121781394Y-84496497D01*
X121781058Y-84482401D01*
X121773116Y-84479000D01*
X120772115Y-84479000D01*
X120756876Y-84483475D01*
X120755671Y-84484865D01*
X120754000Y-84492548D01*
X120754000Y-85492967D01*
X120246000Y-85492967D01*
X120246000Y-84497115D01*
X120241525Y-84481876D01*
X120240135Y-84480671D01*
X120232452Y-84479000D01*
X119232033Y-84479000D01*
X119218502Y-84482973D01*
X119217273Y-84491522D01*
X111708500Y-84491522D01*
X111708500Y-84225000D01*
X124596502Y-84225000D01*
X124616457Y-84453087D01*
X124617881Y-84458400D01*
X124617881Y-84458402D01*
X124629572Y-84502031D01*
X124675716Y-84674243D01*
X124678039Y-84679224D01*
X124678039Y-84679225D01*
X124770151Y-84876762D01*
X124770154Y-84876767D01*
X124772477Y-84881749D01*
X124775634Y-84886257D01*
X124896240Y-85058500D01*
X124903802Y-85069300D01*
X125065700Y-85231198D01*
X125070208Y-85234355D01*
X125070211Y-85234357D01*
X125111542Y-85263297D01*
X125253251Y-85362523D01*
X125258233Y-85364846D01*
X125258238Y-85364849D01*
X125434079Y-85446844D01*
X125460757Y-85459284D01*
X125466065Y-85460706D01*
X125466067Y-85460707D01*
X125676598Y-85517119D01*
X125676600Y-85517119D01*
X125681913Y-85518543D01*
X125910000Y-85538498D01*
X126138087Y-85518543D01*
X126143400Y-85517119D01*
X126143402Y-85517119D01*
X126353933Y-85460707D01*
X126353935Y-85460706D01*
X126359243Y-85459284D01*
X126385921Y-85446844D01*
X126561762Y-85364849D01*
X126561767Y-85364846D01*
X126566749Y-85362523D01*
X126708458Y-85263297D01*
X126749789Y-85234357D01*
X126749792Y-85234355D01*
X126754300Y-85231198D01*
X126916198Y-85069300D01*
X126923761Y-85058500D01*
X127044366Y-84886257D01*
X127047523Y-84881749D01*
X127049846Y-84876767D01*
X127049849Y-84876762D01*
X127141961Y-84679225D01*
X127141961Y-84679224D01*
X127144284Y-84674243D01*
X127190429Y-84502031D01*
X127202119Y-84458402D01*
X127202119Y-84458400D01*
X127203543Y-84453087D01*
X127223498Y-84225000D01*
X127203543Y-83996913D01*
X127196600Y-83971000D01*
X127145707Y-83781067D01*
X127145706Y-83781065D01*
X127144284Y-83775757D01*
X127101847Y-83684749D01*
X127049849Y-83573238D01*
X127049846Y-83573233D01*
X127047523Y-83568251D01*
X126916198Y-83380700D01*
X126754300Y-83218802D01*
X126749792Y-83215645D01*
X126749789Y-83215643D01*
X126658256Y-83151551D01*
X126566749Y-83087477D01*
X126561767Y-83085154D01*
X126561762Y-83085151D01*
X126364225Y-82993039D01*
X126364224Y-82993039D01*
X126359243Y-82990716D01*
X126353935Y-82989294D01*
X126353933Y-82989293D01*
X126143402Y-82932881D01*
X126143400Y-82932881D01*
X126138087Y-82931457D01*
X125910000Y-82911502D01*
X125681913Y-82931457D01*
X125676600Y-82932881D01*
X125676598Y-82932881D01*
X125466067Y-82989293D01*
X125466065Y-82989294D01*
X125460757Y-82990716D01*
X125455776Y-82993039D01*
X125455775Y-82993039D01*
X125258238Y-83085151D01*
X125258233Y-83085154D01*
X125253251Y-83087477D01*
X125161744Y-83151551D01*
X125070211Y-83215643D01*
X125070208Y-83215645D01*
X125065700Y-83218802D01*
X124903802Y-83380700D01*
X124772477Y-83568251D01*
X124770154Y-83573233D01*
X124770151Y-83573238D01*
X124718153Y-83684749D01*
X124675716Y-83775757D01*
X124674294Y-83781065D01*
X124674293Y-83781067D01*
X124623400Y-83971000D01*
X124616457Y-83996913D01*
X124596502Y-84225000D01*
X111708500Y-84225000D01*
X111708500Y-83953503D01*
X119218606Y-83953503D01*
X119218942Y-83967599D01*
X119226884Y-83971000D01*
X120227885Y-83971000D01*
X120243124Y-83966525D01*
X120244329Y-83965135D01*
X120246000Y-83957452D01*
X120246000Y-83952885D01*
X120754000Y-83952885D01*
X120758475Y-83968124D01*
X120759865Y-83969329D01*
X120767548Y-83971000D01*
X121767967Y-83971000D01*
X121781498Y-83967027D01*
X121782727Y-83958478D01*
X121735236Y-83781239D01*
X121731490Y-83770947D01*
X121639414Y-83573489D01*
X121633931Y-83563993D01*
X121508972Y-83385533D01*
X121501916Y-83377125D01*
X121347875Y-83223084D01*
X121339467Y-83216028D01*
X121161007Y-83091069D01*
X121151511Y-83085586D01*
X120954053Y-82993510D01*
X120943761Y-82989764D01*
X120771497Y-82943606D01*
X120757401Y-82943942D01*
X120754000Y-82951884D01*
X120754000Y-83952885D01*
X120246000Y-83952885D01*
X120246000Y-82957033D01*
X120242027Y-82943502D01*
X120233478Y-82942273D01*
X120056239Y-82989764D01*
X120045947Y-82993510D01*
X119848489Y-83085586D01*
X119838993Y-83091069D01*
X119660533Y-83216028D01*
X119652125Y-83223084D01*
X119498084Y-83377125D01*
X119491028Y-83385533D01*
X119366069Y-83563993D01*
X119360586Y-83573489D01*
X119268510Y-83770947D01*
X119264764Y-83781239D01*
X119218606Y-83953503D01*
X111708500Y-83953503D01*
X111708500Y-82043999D01*
X111706652Y-82021031D01*
X111694346Y-81868076D01*
X111694345Y-81868071D01*
X111693940Y-81863035D01*
X111688205Y-81839684D01*
X111637244Y-81632208D01*
X111636037Y-81627294D01*
X111618823Y-81586739D01*
X111568516Y-81468224D01*
X111558500Y-81418992D01*
X111558500Y-81206866D01*
X111558391Y-81205864D01*
X111574574Y-81137212D01*
X111625636Y-81087885D01*
X111684101Y-81073500D01*
X126212969Y-81073500D01*
X126281090Y-81093502D01*
X126302064Y-81110405D01*
X129604595Y-84412936D01*
X129638621Y-84475248D01*
X129641500Y-84502031D01*
X129641500Y-85073134D01*
X129648255Y-85135316D01*
X129699385Y-85271705D01*
X129786739Y-85388261D01*
X129903295Y-85475615D01*
X130039684Y-85526745D01*
X130101866Y-85533500D01*
X132398134Y-85533500D01*
X132460316Y-85526745D01*
X132596705Y-85475615D01*
X132713261Y-85388261D01*
X132800615Y-85271705D01*
X132851745Y-85135316D01*
X132858500Y-85073134D01*
X132858500Y-85040385D01*
X138387000Y-85040385D01*
X138391475Y-85055624D01*
X138392865Y-85056829D01*
X138400548Y-85058500D01*
X139660385Y-85058500D01*
X139675624Y-85054025D01*
X139676829Y-85052635D01*
X139678500Y-85044952D01*
X139678500Y-85040385D01*
X140186500Y-85040385D01*
X140190975Y-85055624D01*
X140192365Y-85056829D01*
X140200048Y-85058500D01*
X141459884Y-85058500D01*
X141475123Y-85054025D01*
X141476328Y-85052635D01*
X141477999Y-85044952D01*
X141477999Y-84240405D01*
X141477662Y-84233886D01*
X141467743Y-84138294D01*
X141464851Y-84124900D01*
X141413412Y-83970716D01*
X141407239Y-83957538D01*
X141321937Y-83819693D01*
X141312901Y-83808292D01*
X141198171Y-83693761D01*
X141186760Y-83684749D01*
X141048757Y-83599684D01*
X141035576Y-83593537D01*
X140881290Y-83542362D01*
X140867914Y-83539495D01*
X140773562Y-83529828D01*
X140767145Y-83529500D01*
X140204615Y-83529500D01*
X140189376Y-83533975D01*
X140188171Y-83535365D01*
X140186500Y-83543048D01*
X140186500Y-85040385D01*
X139678500Y-85040385D01*
X139678500Y-83547616D01*
X139674025Y-83532377D01*
X139672635Y-83531172D01*
X139664952Y-83529501D01*
X139097905Y-83529501D01*
X139091386Y-83529838D01*
X138995794Y-83539757D01*
X138982400Y-83542649D01*
X138828216Y-83594088D01*
X138815038Y-83600261D01*
X138677193Y-83685563D01*
X138665792Y-83694599D01*
X138551261Y-83809329D01*
X138542249Y-83820740D01*
X138457184Y-83958743D01*
X138451037Y-83971924D01*
X138399862Y-84126210D01*
X138396995Y-84139586D01*
X138387328Y-84233938D01*
X138387000Y-84240355D01*
X138387000Y-85040385D01*
X132858500Y-85040385D01*
X132858500Y-84502031D01*
X132878502Y-84433910D01*
X132895405Y-84412936D01*
X134262936Y-83045405D01*
X134325248Y-83011379D01*
X134352031Y-83008500D01*
X142463484Y-83008500D01*
X142467002Y-83008549D01*
X142561650Y-83011193D01*
X142561653Y-83011193D01*
X142566705Y-83011334D01*
X142644598Y-83000941D01*
X142651139Y-83000242D01*
X142679832Y-82997933D01*
X142724423Y-82994346D01*
X142724427Y-82994345D01*
X142729465Y-82993940D01*
X142761378Y-82986101D01*
X142774758Y-82983574D01*
X142807320Y-82979229D01*
X142812161Y-82977768D01*
X142812163Y-82977767D01*
X142882529Y-82956522D01*
X142888892Y-82954781D01*
X142900687Y-82951884D01*
X142965206Y-82936037D01*
X142995452Y-82923199D01*
X143008263Y-82918561D01*
X143039708Y-82909067D01*
X143044256Y-82906849D01*
X143044263Y-82906846D01*
X143110318Y-82874629D01*
X143116320Y-82871893D01*
X143161004Y-82852926D01*
X143188656Y-82841188D01*
X143216456Y-82823681D01*
X143228360Y-82817055D01*
X143257888Y-82802654D01*
X143322100Y-82757357D01*
X143327586Y-82753699D01*
X143389786Y-82714529D01*
X143389787Y-82714528D01*
X143394067Y-82711833D01*
X143397856Y-82708492D01*
X143397862Y-82708488D01*
X143418717Y-82690102D01*
X143429412Y-82681656D01*
X143441728Y-82672968D01*
X143456247Y-82662726D01*
X143463156Y-82656417D01*
X143476687Y-82644062D01*
X143476695Y-82644054D01*
X143477750Y-82643091D01*
X143517466Y-82603375D01*
X143523236Y-82597956D01*
X143572358Y-82554650D01*
X143572361Y-82554647D01*
X143576155Y-82551302D01*
X143602679Y-82519011D01*
X143610949Y-82509892D01*
X146425436Y-79695405D01*
X146487748Y-79661379D01*
X146514531Y-79658500D01*
X146903969Y-79658500D01*
X146972090Y-79678502D01*
X147018583Y-79732158D01*
X147028687Y-79802432D01*
X146999193Y-79867012D01*
X146993064Y-79873595D01*
X145107834Y-81758825D01*
X145105312Y-81761279D01*
X145032819Y-81829832D01*
X144985092Y-81892257D01*
X144980948Y-81897392D01*
X144951549Y-81931936D01*
X144930030Y-81957220D01*
X144927411Y-81961545D01*
X144927407Y-81961550D01*
X144913009Y-81985324D01*
X144905337Y-81996571D01*
X144885380Y-82022674D01*
X144882990Y-82027132D01*
X144882989Y-82027133D01*
X144848261Y-82091901D01*
X144844996Y-82097626D01*
X144804279Y-82164858D01*
X144802384Y-82169549D01*
X144791973Y-82195317D01*
X144786193Y-82207658D01*
X144770669Y-82236609D01*
X144769023Y-82241390D01*
X144769021Y-82241394D01*
X144745088Y-82310901D01*
X144742778Y-82317079D01*
X144713345Y-82389929D01*
X144712223Y-82394868D01*
X144706068Y-82421960D01*
X144702337Y-82435059D01*
X144691638Y-82466131D01*
X144678257Y-82543600D01*
X144676977Y-82550004D01*
X144659565Y-82626644D01*
X144657501Y-82659453D01*
X144655915Y-82672953D01*
X144650321Y-82705336D01*
X144650141Y-82709293D01*
X144650141Y-82709296D01*
X144649904Y-82714529D01*
X144649000Y-82734425D01*
X144649000Y-82790608D01*
X144648751Y-82798519D01*
X144644322Y-82868913D01*
X144648042Y-82906846D01*
X144648399Y-82910492D01*
X144649000Y-82922788D01*
X144649000Y-84031498D01*
X144642593Y-84071164D01*
X144622203Y-84132639D01*
X144621503Y-84139475D01*
X144621502Y-84139478D01*
X144617091Y-84182531D01*
X144611500Y-84237100D01*
X144611500Y-86387900D01*
X144611837Y-86391146D01*
X144611837Y-86391150D01*
X144621752Y-86486706D01*
X144622474Y-86493666D01*
X144678450Y-86661446D01*
X144771522Y-86811848D01*
X144896697Y-86936805D01*
X144902927Y-86940645D01*
X144902928Y-86940646D01*
X145040288Y-87025316D01*
X145047262Y-87029615D01*
X145127005Y-87056064D01*
X145208611Y-87083132D01*
X145208613Y-87083132D01*
X145215139Y-87085297D01*
X145221975Y-87085997D01*
X145221978Y-87085998D01*
X145265031Y-87090409D01*
X145319600Y-87096000D01*
X146995400Y-87096000D01*
X146998646Y-87095663D01*
X146998650Y-87095663D01*
X147094308Y-87085738D01*
X147094312Y-87085737D01*
X147101166Y-87085026D01*
X147107702Y-87082845D01*
X147107704Y-87082845D01*
X147239806Y-87038772D01*
X147268946Y-87029050D01*
X147419348Y-86935978D01*
X147544305Y-86810803D01*
X147548338Y-86804260D01*
X147633275Y-86666468D01*
X147633276Y-86666466D01*
X147637115Y-86660238D01*
X147692797Y-86492361D01*
X147703500Y-86387900D01*
X147703500Y-84237100D01*
X147702245Y-84225000D01*
X147693238Y-84138192D01*
X147693237Y-84138188D01*
X147692526Y-84131334D01*
X147672476Y-84071237D01*
X147666000Y-84031361D01*
X147666000Y-83519531D01*
X147686002Y-83451410D01*
X147702905Y-83430436D01*
X149201405Y-81931936D01*
X149263717Y-81897910D01*
X149334532Y-81902975D01*
X149391368Y-81945522D01*
X149416179Y-82012042D01*
X149416500Y-82021031D01*
X149416500Y-90372969D01*
X149396498Y-90441090D01*
X149379595Y-90462064D01*
X148637064Y-91204595D01*
X148574752Y-91238621D01*
X148547969Y-91241500D01*
X147541437Y-91241500D01*
X147473316Y-91221498D01*
X147452419Y-91204673D01*
X147378483Y-91130866D01*
X147373303Y-91125695D01*
X147268378Y-91061018D01*
X147228968Y-91036725D01*
X147228966Y-91036724D01*
X147222738Y-91032885D01*
X147142995Y-91006436D01*
X147061389Y-90979368D01*
X147061387Y-90979368D01*
X147054861Y-90977203D01*
X147048025Y-90976503D01*
X147048022Y-90976502D01*
X147004969Y-90972091D01*
X146950400Y-90966500D01*
X145274600Y-90966500D01*
X145271354Y-90966837D01*
X145271350Y-90966837D01*
X145175692Y-90976762D01*
X145175688Y-90976763D01*
X145168834Y-90977474D01*
X145162298Y-90979655D01*
X145162296Y-90979655D01*
X145054344Y-91015671D01*
X145001054Y-91033450D01*
X144850652Y-91126522D01*
X144725695Y-91251697D01*
X144721855Y-91257927D01*
X144721854Y-91257928D01*
X144637718Y-91394422D01*
X144632885Y-91402262D01*
X144629457Y-91412598D01*
X144592963Y-91522625D01*
X144577203Y-91570139D01*
X144566500Y-91674600D01*
X144566500Y-93825400D01*
X144566837Y-93828646D01*
X144566837Y-93828650D01*
X144576752Y-93924206D01*
X144577474Y-93931166D01*
X144633450Y-94098946D01*
X144726522Y-94249348D01*
X144851697Y-94374305D01*
X144857927Y-94378145D01*
X144857928Y-94378146D01*
X144995288Y-94462816D01*
X145002262Y-94467115D01*
X145042397Y-94480427D01*
X145163611Y-94520632D01*
X145163613Y-94520632D01*
X145170139Y-94522797D01*
X145176975Y-94523497D01*
X145176978Y-94523498D01*
X145220031Y-94527909D01*
X145274600Y-94533500D01*
X146950400Y-94533500D01*
X146953646Y-94533163D01*
X146953650Y-94533163D01*
X147049308Y-94523238D01*
X147049312Y-94523237D01*
X147056166Y-94522526D01*
X147062702Y-94520345D01*
X147062704Y-94520345D01*
X147201544Y-94474024D01*
X147223946Y-94466550D01*
X147374348Y-94373478D01*
X147452209Y-94295482D01*
X147514490Y-94261403D01*
X147541381Y-94258500D01*
X149200984Y-94258500D01*
X149204502Y-94258549D01*
X149299150Y-94261193D01*
X149299153Y-94261193D01*
X149304205Y-94261334D01*
X149382098Y-94250941D01*
X149388639Y-94250242D01*
X149417332Y-94247933D01*
X149461923Y-94244346D01*
X149461927Y-94244345D01*
X149466965Y-94243940D01*
X149498878Y-94236101D01*
X149512258Y-94233574D01*
X149544820Y-94229229D01*
X149549661Y-94227768D01*
X149549663Y-94227767D01*
X149620029Y-94206522D01*
X149626392Y-94204781D01*
X149702706Y-94186037D01*
X149732952Y-94173199D01*
X149745763Y-94168561D01*
X149772362Y-94160530D01*
X149777208Y-94159067D01*
X149781756Y-94156849D01*
X149781763Y-94156846D01*
X149847818Y-94124629D01*
X149853820Y-94121893D01*
X149907879Y-94098946D01*
X149926156Y-94091188D01*
X149953956Y-94073681D01*
X149965860Y-94067055D01*
X149995388Y-94052654D01*
X150059600Y-94007357D01*
X150065086Y-94003699D01*
X150127286Y-93964529D01*
X150127287Y-93964528D01*
X150131567Y-93961833D01*
X150135356Y-93958492D01*
X150135362Y-93958488D01*
X150156217Y-93940102D01*
X150166912Y-93931656D01*
X150177473Y-93924206D01*
X150193747Y-93912726D01*
X150215250Y-93893091D01*
X150254966Y-93853375D01*
X150260736Y-93847956D01*
X150309858Y-93804650D01*
X150309861Y-93804647D01*
X150313655Y-93801302D01*
X150316871Y-93797387D01*
X150340178Y-93769013D01*
X150348448Y-93759893D01*
X150812936Y-93295405D01*
X150875248Y-93261379D01*
X150902031Y-93258500D01*
X159373134Y-93258500D01*
X159435316Y-93251745D01*
X159571705Y-93200615D01*
X159688261Y-93113261D01*
X159773146Y-93000000D01*
X168486540Y-93000000D01*
X168506359Y-93315020D01*
X168565505Y-93625072D01*
X168566732Y-93628848D01*
X168658970Y-93912726D01*
X168663044Y-93925266D01*
X168664731Y-93928852D01*
X168664733Y-93928856D01*
X168795750Y-94207283D01*
X168795754Y-94207290D01*
X168797438Y-94210869D01*
X168966568Y-94477375D01*
X169167767Y-94720582D01*
X169397860Y-94936654D01*
X169653221Y-95122184D01*
X169929821Y-95274247D01*
X169933490Y-95275700D01*
X169933495Y-95275702D01*
X170219628Y-95388990D01*
X170223298Y-95390443D01*
X170529025Y-95468940D01*
X170842179Y-95508500D01*
X171157821Y-95508500D01*
X171470975Y-95468940D01*
X171776702Y-95390443D01*
X171780372Y-95388990D01*
X172066505Y-95275702D01*
X172066510Y-95275700D01*
X172070179Y-95274247D01*
X172346779Y-95122184D01*
X172602140Y-94936654D01*
X172832233Y-94720582D01*
X173033432Y-94477375D01*
X173202562Y-94210869D01*
X173204246Y-94207290D01*
X173204250Y-94207283D01*
X173335267Y-93928856D01*
X173335269Y-93928852D01*
X173336956Y-93925266D01*
X173341031Y-93912726D01*
X173433268Y-93628848D01*
X173434495Y-93625072D01*
X173493641Y-93315020D01*
X173513460Y-93000000D01*
X173493641Y-92684980D01*
X173434495Y-92374928D01*
X173336956Y-92074734D01*
X173296656Y-91989092D01*
X173204250Y-91792717D01*
X173204246Y-91792710D01*
X173202562Y-91789131D01*
X173033432Y-91522625D01*
X172832233Y-91279418D01*
X172602140Y-91063346D01*
X172346779Y-90877816D01*
X172296463Y-90850154D01*
X172073648Y-90727660D01*
X172073647Y-90727659D01*
X172070179Y-90725753D01*
X172066510Y-90724300D01*
X172066505Y-90724298D01*
X171780372Y-90611010D01*
X171780371Y-90611010D01*
X171776702Y-90609557D01*
X171470975Y-90531060D01*
X171157821Y-90491500D01*
X170842179Y-90491500D01*
X170529025Y-90531060D01*
X170223298Y-90609557D01*
X170219629Y-90611010D01*
X170219628Y-90611010D01*
X169933495Y-90724298D01*
X169933490Y-90724300D01*
X169929821Y-90725753D01*
X169926353Y-90727659D01*
X169926352Y-90727660D01*
X169703538Y-90850154D01*
X169653221Y-90877816D01*
X169397860Y-91063346D01*
X169167767Y-91279418D01*
X168966568Y-91522625D01*
X168797438Y-91789131D01*
X168795754Y-91792710D01*
X168795750Y-91792717D01*
X168703344Y-91989092D01*
X168663044Y-92074734D01*
X168565505Y-92374928D01*
X168506359Y-92684980D01*
X168486540Y-93000000D01*
X159773146Y-93000000D01*
X159775615Y-92996705D01*
X159826745Y-92860316D01*
X159833500Y-92798134D01*
X159833500Y-90484669D01*
X160967001Y-90484669D01*
X160967371Y-90491490D01*
X160972895Y-90542352D01*
X160976521Y-90557604D01*
X161021676Y-90678054D01*
X161030214Y-90693649D01*
X161106715Y-90795724D01*
X161119276Y-90808285D01*
X161221351Y-90884786D01*
X161236946Y-90893324D01*
X161357394Y-90938478D01*
X161372649Y-90942105D01*
X161423514Y-90947631D01*
X161430328Y-90948000D01*
X163502885Y-90948000D01*
X163518124Y-90943525D01*
X163519329Y-90942135D01*
X163521000Y-90934452D01*
X163521000Y-90929884D01*
X164029000Y-90929884D01*
X164033475Y-90945123D01*
X164034865Y-90946328D01*
X164042548Y-90947999D01*
X166119669Y-90947999D01*
X166126490Y-90947629D01*
X166177352Y-90942105D01*
X166192604Y-90938479D01*
X166313054Y-90893324D01*
X166328649Y-90884786D01*
X166430724Y-90808285D01*
X166443285Y-90795724D01*
X166519786Y-90693649D01*
X166528324Y-90678054D01*
X166573478Y-90557606D01*
X166577105Y-90542351D01*
X166582631Y-90491486D01*
X166583000Y-90484672D01*
X166583000Y-90162115D01*
X166578525Y-90146876D01*
X166577135Y-90145671D01*
X166569452Y-90144000D01*
X164047115Y-90144000D01*
X164031876Y-90148475D01*
X164030671Y-90149865D01*
X164029000Y-90157548D01*
X164029000Y-90929884D01*
X163521000Y-90929884D01*
X163521000Y-90162115D01*
X163516525Y-90146876D01*
X163515135Y-90145671D01*
X163507452Y-90144000D01*
X160985116Y-90144000D01*
X160969877Y-90148475D01*
X160968672Y-90149865D01*
X160967001Y-90157548D01*
X160967001Y-90484669D01*
X159833500Y-90484669D01*
X159833500Y-88984500D01*
X159853502Y-88916379D01*
X159907158Y-88869886D01*
X159959500Y-88858500D01*
X160949088Y-88858500D01*
X161017209Y-88878502D01*
X161063702Y-88932158D01*
X161073806Y-89002432D01*
X161049915Y-89060064D01*
X161030214Y-89086352D01*
X161021676Y-89101946D01*
X160976522Y-89222394D01*
X160972895Y-89237649D01*
X160967369Y-89288514D01*
X160967000Y-89295328D01*
X160967000Y-89617885D01*
X160971475Y-89633124D01*
X160972865Y-89634329D01*
X160980548Y-89636000D01*
X166564884Y-89636000D01*
X166580123Y-89631525D01*
X166581328Y-89630135D01*
X166582999Y-89622452D01*
X166582999Y-89295331D01*
X166582629Y-89288510D01*
X166577105Y-89237648D01*
X166573479Y-89222396D01*
X166528324Y-89101946D01*
X166519786Y-89086352D01*
X166500085Y-89060064D01*
X166475238Y-88993557D01*
X166490292Y-88924175D01*
X166540466Y-88873945D01*
X166600912Y-88858500D01*
X172702969Y-88858500D01*
X172771090Y-88878502D01*
X172792064Y-88895405D01*
X175494595Y-91597937D01*
X175528621Y-91660249D01*
X175531500Y-91687032D01*
X175531500Y-92808134D01*
X175538255Y-92870316D01*
X175589385Y-93006705D01*
X175676739Y-93123261D01*
X175793295Y-93210615D01*
X175929684Y-93261745D01*
X175991866Y-93268500D01*
X177588134Y-93268500D01*
X177650316Y-93261745D01*
X177786705Y-93210615D01*
X177903261Y-93123261D01*
X177990615Y-93006705D01*
X178041745Y-92870316D01*
X178048500Y-92808134D01*
X178048500Y-91814175D01*
X181532000Y-91814175D01*
X181532249Y-91819770D01*
X181546378Y-91978078D01*
X181548360Y-91989092D01*
X181604651Y-92194860D01*
X181608549Y-92205341D01*
X181700397Y-92397903D01*
X181706082Y-92407516D01*
X181830575Y-92580767D01*
X181837883Y-92589233D01*
X181991082Y-92737692D01*
X181999779Y-92744735D01*
X182176844Y-92863719D01*
X182186642Y-92869105D01*
X182381990Y-92954857D01*
X182392582Y-92958422D01*
X182518384Y-92988624D01*
X182532470Y-92987919D01*
X182536000Y-92979040D01*
X182536000Y-92978411D01*
X183044000Y-92978411D01*
X183048105Y-92992393D01*
X183057728Y-92993886D01*
X183057973Y-92993834D01*
X183261883Y-92931102D01*
X183272229Y-92926881D01*
X183461814Y-92829029D01*
X183471245Y-92823043D01*
X183640501Y-92693168D01*
X183648724Y-92685607D01*
X183792312Y-92527806D01*
X183799067Y-92518906D01*
X183912434Y-92338185D01*
X183917511Y-92328219D01*
X183997080Y-92130286D01*
X184000315Y-92119571D01*
X184043777Y-91909699D01*
X184044980Y-91900562D01*
X184047895Y-91850010D01*
X184048000Y-91846363D01*
X184048000Y-91032115D01*
X184043525Y-91016876D01*
X184042135Y-91015671D01*
X184034452Y-91014000D01*
X183062115Y-91014000D01*
X183046876Y-91018475D01*
X183045671Y-91019865D01*
X183044000Y-91027548D01*
X183044000Y-92978411D01*
X182536000Y-92978411D01*
X182536000Y-91032115D01*
X182531525Y-91016876D01*
X182530135Y-91015671D01*
X182522452Y-91014000D01*
X181550115Y-91014000D01*
X181534876Y-91018475D01*
X181533671Y-91019865D01*
X181532000Y-91027548D01*
X181532000Y-91814175D01*
X178048500Y-91814175D01*
X178048500Y-91633144D01*
X178064512Y-91571674D01*
X178163575Y-91394422D01*
X178163576Y-91394419D01*
X178166045Y-91390002D01*
X178249070Y-91161895D01*
X178272947Y-91036725D01*
X178293606Y-90928424D01*
X178293607Y-90928419D01*
X178294555Y-90923447D01*
X178301334Y-90680795D01*
X178280162Y-90522115D01*
X178275594Y-90487885D01*
X181532000Y-90487885D01*
X181536475Y-90503124D01*
X181537865Y-90504329D01*
X181545548Y-90506000D01*
X182517885Y-90506000D01*
X182533124Y-90501525D01*
X182534329Y-90500135D01*
X182536000Y-90492452D01*
X182536000Y-90487885D01*
X183044000Y-90487885D01*
X183048475Y-90503124D01*
X183049865Y-90504329D01*
X183057548Y-90506000D01*
X184029885Y-90506000D01*
X184045124Y-90501525D01*
X184046329Y-90500135D01*
X184048000Y-90492452D01*
X184048000Y-89705825D01*
X184047751Y-89700230D01*
X184033622Y-89541922D01*
X184031640Y-89530908D01*
X183975349Y-89325140D01*
X183971451Y-89314659D01*
X183879603Y-89122097D01*
X183873918Y-89112484D01*
X183749425Y-88939233D01*
X183742117Y-88930767D01*
X183588918Y-88782308D01*
X183580221Y-88775265D01*
X183403156Y-88656281D01*
X183393358Y-88650895D01*
X183198010Y-88565143D01*
X183187418Y-88561578D01*
X183061616Y-88531376D01*
X183047530Y-88532081D01*
X183044000Y-88540960D01*
X183044000Y-90487885D01*
X182536000Y-90487885D01*
X182536000Y-88541589D01*
X182531895Y-88527607D01*
X182522272Y-88526114D01*
X182522027Y-88526166D01*
X182318117Y-88588898D01*
X182307771Y-88593119D01*
X182118186Y-88690971D01*
X182108755Y-88696957D01*
X181939499Y-88826832D01*
X181931276Y-88834393D01*
X181787688Y-88992194D01*
X181780933Y-89001094D01*
X181667566Y-89181815D01*
X181662489Y-89191781D01*
X181582920Y-89389714D01*
X181579685Y-89400429D01*
X181536223Y-89610301D01*
X181535020Y-89619438D01*
X181532105Y-89669990D01*
X181532000Y-89673637D01*
X181532000Y-90487885D01*
X178275594Y-90487885D01*
X178269898Y-90445194D01*
X178269229Y-90440180D01*
X178248937Y-90372969D01*
X178200532Y-90212643D01*
X178200530Y-90212639D01*
X178199067Y-90207792D01*
X178092654Y-89989612D01*
X178087603Y-89982452D01*
X178071540Y-89959680D01*
X178048500Y-89887050D01*
X178048500Y-88711866D01*
X178041745Y-88649684D01*
X177990615Y-88513295D01*
X177903261Y-88396739D01*
X177786705Y-88309385D01*
X177650316Y-88258255D01*
X177588134Y-88251500D01*
X176467031Y-88251500D01*
X176398910Y-88231498D01*
X176377936Y-88214595D01*
X174491069Y-86327728D01*
X177556114Y-86327728D01*
X177556166Y-86327973D01*
X177618898Y-86531883D01*
X177623119Y-86542229D01*
X177720971Y-86731814D01*
X177726957Y-86741245D01*
X177856832Y-86910501D01*
X177864393Y-86918724D01*
X178022194Y-87062312D01*
X178031094Y-87069067D01*
X178211815Y-87182434D01*
X178221781Y-87187511D01*
X178419714Y-87267080D01*
X178430429Y-87270315D01*
X178640301Y-87313777D01*
X178649438Y-87314980D01*
X178699990Y-87317895D01*
X178703637Y-87318000D01*
X179517885Y-87318000D01*
X179533124Y-87313525D01*
X179534329Y-87312135D01*
X179536000Y-87304452D01*
X179536000Y-87299885D01*
X180044000Y-87299885D01*
X180048475Y-87315124D01*
X180049865Y-87316329D01*
X180057548Y-87318000D01*
X180844175Y-87318000D01*
X180849770Y-87317751D01*
X181008078Y-87303622D01*
X181019092Y-87301640D01*
X181224860Y-87245349D01*
X181235341Y-87241451D01*
X181427903Y-87149603D01*
X181437516Y-87143918D01*
X181610767Y-87019425D01*
X181619233Y-87012117D01*
X181767692Y-86858918D01*
X181774735Y-86850221D01*
X181893719Y-86673156D01*
X181899105Y-86663358D01*
X181984857Y-86468010D01*
X181988422Y-86457418D01*
X182018624Y-86331616D01*
X182017919Y-86317530D01*
X182009040Y-86314000D01*
X180062115Y-86314000D01*
X180046876Y-86318475D01*
X180045671Y-86319865D01*
X180044000Y-86327548D01*
X180044000Y-87299885D01*
X179536000Y-87299885D01*
X179536000Y-86332115D01*
X179531525Y-86316876D01*
X179530135Y-86315671D01*
X179522452Y-86314000D01*
X177571589Y-86314000D01*
X177557607Y-86318105D01*
X177556114Y-86327728D01*
X174491069Y-86327728D01*
X174463675Y-86300334D01*
X174461221Y-86297812D01*
X174396138Y-86228988D01*
X174396135Y-86228986D01*
X174392668Y-86225319D01*
X174330239Y-86177589D01*
X174325108Y-86173448D01*
X174269133Y-86125809D01*
X174269132Y-86125808D01*
X174265280Y-86122530D01*
X174260955Y-86119911D01*
X174260950Y-86119907D01*
X174237176Y-86105509D01*
X174225929Y-86097837D01*
X174199826Y-86077880D01*
X174130592Y-86040757D01*
X174124868Y-86037493D01*
X174061966Y-85999398D01*
X174057642Y-85996779D01*
X174027181Y-85984472D01*
X174014841Y-85978692D01*
X173990350Y-85965560D01*
X173990351Y-85965560D01*
X173985891Y-85963169D01*
X173981110Y-85961523D01*
X173981106Y-85961521D01*
X173911599Y-85937588D01*
X173905421Y-85935278D01*
X173837266Y-85907742D01*
X173837267Y-85907742D01*
X173832571Y-85905845D01*
X173800539Y-85898568D01*
X173787441Y-85894837D01*
X173756369Y-85884138D01*
X173678900Y-85870757D01*
X173672496Y-85869477D01*
X173595856Y-85852065D01*
X173563047Y-85850001D01*
X173549547Y-85848415D01*
X173517164Y-85842821D01*
X173513207Y-85842641D01*
X173513204Y-85842641D01*
X173489494Y-85841564D01*
X173489475Y-85841564D01*
X173488075Y-85841500D01*
X173451031Y-85841500D01*
X173382910Y-85821498D01*
X173354217Y-85788384D01*
X177561376Y-85788384D01*
X177562081Y-85802470D01*
X177570960Y-85806000D01*
X179517885Y-85806000D01*
X179533124Y-85801525D01*
X179534329Y-85800135D01*
X179536000Y-85792452D01*
X179536000Y-85787885D01*
X180044000Y-85787885D01*
X180048475Y-85803124D01*
X180049865Y-85804329D01*
X180057548Y-85806000D01*
X182008411Y-85806000D01*
X182022393Y-85801895D01*
X182023886Y-85792272D01*
X182023834Y-85792027D01*
X181961102Y-85588117D01*
X181956881Y-85577771D01*
X181859029Y-85388186D01*
X181853043Y-85378755D01*
X181723168Y-85209499D01*
X181715607Y-85201276D01*
X181557806Y-85057688D01*
X181548906Y-85050933D01*
X181368185Y-84937566D01*
X181358219Y-84932489D01*
X181160286Y-84852920D01*
X181149571Y-84849685D01*
X180939699Y-84806223D01*
X180930562Y-84805020D01*
X180880010Y-84802105D01*
X180876363Y-84802000D01*
X180062115Y-84802000D01*
X180046876Y-84806475D01*
X180045671Y-84807865D01*
X180044000Y-84815548D01*
X180044000Y-85787885D01*
X179536000Y-85787885D01*
X179536000Y-84820115D01*
X179531525Y-84804876D01*
X179530135Y-84803671D01*
X179522452Y-84802000D01*
X178735825Y-84802000D01*
X178730230Y-84802249D01*
X178571922Y-84816378D01*
X178560908Y-84818360D01*
X178355140Y-84874651D01*
X178344659Y-84878549D01*
X178152097Y-84970397D01*
X178142484Y-84976082D01*
X177969233Y-85100575D01*
X177960767Y-85107883D01*
X177812308Y-85261082D01*
X177805265Y-85269779D01*
X177686281Y-85446844D01*
X177680895Y-85456642D01*
X177595143Y-85651990D01*
X177591578Y-85662582D01*
X177561376Y-85788384D01*
X173354217Y-85788384D01*
X173336417Y-85767842D01*
X173326313Y-85697568D01*
X173355807Y-85632988D01*
X173361936Y-85626405D01*
X175536932Y-83451410D01*
X177899805Y-81088537D01*
X178017470Y-80950280D01*
X178048576Y-80898919D01*
X178105644Y-80804688D01*
X178143220Y-80742643D01*
X178234155Y-80517571D01*
X178248914Y-80452607D01*
X178286815Y-80285787D01*
X178286816Y-80285784D01*
X178287935Y-80280856D01*
X178290340Y-80242641D01*
X178302860Y-80043642D01*
X178303178Y-80038588D01*
X178279489Y-79796998D01*
X178242897Y-79658500D01*
X178218773Y-79567193D01*
X178218771Y-79567187D01*
X178217481Y-79562305D01*
X178118746Y-79340545D01*
X177985826Y-79137422D01*
X177841604Y-78979478D01*
X177825551Y-78961897D01*
X177825549Y-78961895D01*
X177822142Y-78958164D01*
X177818178Y-78955022D01*
X177741913Y-78894575D01*
X177700952Y-78836587D01*
X177697844Y-78765658D01*
X177736853Y-78701316D01*
X177736897Y-78701278D01*
X177843938Y-78606909D01*
X177874858Y-78579650D01*
X177874861Y-78579647D01*
X177878655Y-78576302D01*
X177924978Y-78519907D01*
X178029526Y-78392628D01*
X178029528Y-78392625D01*
X178032734Y-78388722D01*
X178094104Y-78283279D01*
X178152299Y-78183290D01*
X178152300Y-78183288D01*
X178154841Y-78178922D01*
X178164950Y-78152588D01*
X178240020Y-77957022D01*
X178240021Y-77957018D01*
X178241833Y-77952298D01*
X178243978Y-77942031D01*
X178290440Y-77719631D01*
X178290440Y-77719627D01*
X178291474Y-77714680D01*
X178302486Y-77472183D01*
X178294847Y-77406158D01*
X178275167Y-77236071D01*
X178275166Y-77236067D01*
X178274585Y-77231044D01*
X178256201Y-77166074D01*
X178209866Y-77002331D01*
X178208490Y-76997468D01*
X178206356Y-76992892D01*
X178206354Y-76992886D01*
X178108038Y-76782046D01*
X178108036Y-76782042D01*
X178105901Y-76777464D01*
X177969456Y-76576693D01*
X177965977Y-76573014D01*
X177965973Y-76573009D01*
X177871126Y-76472711D01*
X177838854Y-76409473D01*
X177845894Y-76338826D01*
X177887109Y-76285312D01*
X177937897Y-76247249D01*
X178003261Y-76198261D01*
X178090615Y-76081705D01*
X178141745Y-75945316D01*
X178148500Y-75883134D01*
X178148500Y-75675376D01*
X178163455Y-75615836D01*
X178176831Y-75590891D01*
X178255862Y-75361369D01*
X178283283Y-75202616D01*
X178296504Y-75126074D01*
X178296505Y-75126068D01*
X178297179Y-75122164D01*
X178297359Y-75118202D01*
X178298436Y-75094494D01*
X178298436Y-75094475D01*
X178298500Y-75093075D01*
X178298500Y-66794175D01*
X181552000Y-66794175D01*
X181552249Y-66799770D01*
X181566378Y-66958078D01*
X181568360Y-66969092D01*
X181624651Y-67174860D01*
X181628549Y-67185341D01*
X181720397Y-67377903D01*
X181726082Y-67387516D01*
X181850575Y-67560767D01*
X181857883Y-67569233D01*
X182011082Y-67717692D01*
X182019779Y-67724735D01*
X182196844Y-67843719D01*
X182206642Y-67849105D01*
X182401990Y-67934857D01*
X182412582Y-67938422D01*
X182538384Y-67968624D01*
X182552470Y-67967919D01*
X182556000Y-67959040D01*
X182556000Y-67958411D01*
X183064000Y-67958411D01*
X183068105Y-67972393D01*
X183077728Y-67973886D01*
X183077973Y-67973834D01*
X183281883Y-67911102D01*
X183292229Y-67906881D01*
X183481814Y-67809029D01*
X183491245Y-67803043D01*
X183660501Y-67673168D01*
X183668724Y-67665607D01*
X183812312Y-67507806D01*
X183819067Y-67498906D01*
X183932434Y-67318185D01*
X183937511Y-67308219D01*
X184017080Y-67110286D01*
X184020315Y-67099571D01*
X184063777Y-66889699D01*
X184064980Y-66880562D01*
X184067895Y-66830010D01*
X184068000Y-66826363D01*
X184068000Y-66012115D01*
X184063525Y-65996876D01*
X184062135Y-65995671D01*
X184054452Y-65994000D01*
X183082115Y-65994000D01*
X183066876Y-65998475D01*
X183065671Y-65999865D01*
X183064000Y-66007548D01*
X183064000Y-67958411D01*
X182556000Y-67958411D01*
X182556000Y-66012115D01*
X182551525Y-65996876D01*
X182550135Y-65995671D01*
X182542452Y-65994000D01*
X181570115Y-65994000D01*
X181554876Y-65998475D01*
X181553671Y-65999865D01*
X181552000Y-66007548D01*
X181552000Y-66794175D01*
X178298500Y-66794175D01*
X178298500Y-65698999D01*
X178298298Y-65696486D01*
X178284346Y-65523076D01*
X178284345Y-65523071D01*
X178283940Y-65518035D01*
X178281591Y-65508469D01*
X178271623Y-65467885D01*
X181552000Y-65467885D01*
X181556475Y-65483124D01*
X181557865Y-65484329D01*
X181565548Y-65486000D01*
X182537885Y-65486000D01*
X182553124Y-65481525D01*
X182554329Y-65480135D01*
X182556000Y-65472452D01*
X182556000Y-65467885D01*
X183064000Y-65467885D01*
X183068475Y-65483124D01*
X183069865Y-65484329D01*
X183077548Y-65486000D01*
X184049885Y-65486000D01*
X184065124Y-65481525D01*
X184066329Y-65480135D01*
X184068000Y-65472452D01*
X184068000Y-64685825D01*
X184067751Y-64680230D01*
X184053622Y-64521922D01*
X184051640Y-64510908D01*
X183995349Y-64305140D01*
X183991451Y-64294659D01*
X183899603Y-64102097D01*
X183893918Y-64092484D01*
X183769425Y-63919233D01*
X183762117Y-63910767D01*
X183608918Y-63762308D01*
X183600221Y-63755265D01*
X183423156Y-63636281D01*
X183413358Y-63630895D01*
X183218010Y-63545143D01*
X183207418Y-63541578D01*
X183081616Y-63511376D01*
X183067530Y-63512081D01*
X183064000Y-63520960D01*
X183064000Y-65467885D01*
X182556000Y-65467885D01*
X182556000Y-63521589D01*
X182551895Y-63507607D01*
X182542272Y-63506114D01*
X182542027Y-63506166D01*
X182338117Y-63568898D01*
X182327771Y-63573119D01*
X182138186Y-63670971D01*
X182128755Y-63676957D01*
X181959499Y-63806832D01*
X181951276Y-63814393D01*
X181807688Y-63972194D01*
X181800933Y-63981094D01*
X181687566Y-64161815D01*
X181682489Y-64171781D01*
X181602920Y-64369714D01*
X181599685Y-64380429D01*
X181556223Y-64590301D01*
X181555020Y-64599438D01*
X181552105Y-64649990D01*
X181552000Y-64653637D01*
X181552000Y-65467885D01*
X178271623Y-65467885D01*
X178227244Y-65287208D01*
X178226037Y-65282294D01*
X178222622Y-65274247D01*
X178158074Y-65122184D01*
X178131188Y-65058844D01*
X178087880Y-64990072D01*
X178068500Y-64922930D01*
X178068500Y-63691866D01*
X178061745Y-63629684D01*
X178010615Y-63493295D01*
X177923261Y-63376739D01*
X177806705Y-63289385D01*
X177670316Y-63238255D01*
X177608134Y-63231500D01*
X176011866Y-63231500D01*
X175949684Y-63238255D01*
X175813295Y-63289385D01*
X175696739Y-63376739D01*
X175609385Y-63493295D01*
X175558255Y-63629684D01*
X175551500Y-63691866D01*
X175551500Y-64853552D01*
X175531498Y-64921673D01*
X175525597Y-64930081D01*
X175517880Y-64940174D01*
X175403169Y-65154109D01*
X175324138Y-65383631D01*
X175322792Y-65391424D01*
X175291241Y-65574091D01*
X175282821Y-65622836D01*
X175281500Y-65651925D01*
X175281500Y-75046001D01*
X175281702Y-75048509D01*
X175281702Y-75048514D01*
X175294843Y-75211833D01*
X175296060Y-75226965D01*
X175297266Y-75231873D01*
X175297266Y-75231876D01*
X175347709Y-75437244D01*
X175353963Y-75462706D01*
X175355938Y-75467358D01*
X175355939Y-75467362D01*
X175421484Y-75621776D01*
X175431500Y-75671008D01*
X175431500Y-75883134D01*
X175431609Y-75884136D01*
X175415426Y-75952788D01*
X175364364Y-76002115D01*
X175305899Y-76016500D01*
X170202031Y-76016500D01*
X170133910Y-75996498D01*
X170112936Y-75979595D01*
X166620405Y-72487064D01*
X166586379Y-72424752D01*
X166583500Y-72397969D01*
X166583500Y-63201866D01*
X166576745Y-63139684D01*
X166525615Y-63003295D01*
X166523146Y-63000000D01*
X168486540Y-63000000D01*
X168506359Y-63315020D01*
X168565505Y-63625072D01*
X168663044Y-63925266D01*
X168664731Y-63928852D01*
X168664733Y-63928856D01*
X168795750Y-64207283D01*
X168795754Y-64207290D01*
X168797438Y-64210869D01*
X168966568Y-64477375D01*
X169167767Y-64720582D01*
X169397860Y-64936654D01*
X169653221Y-65122184D01*
X169656690Y-65124091D01*
X169656693Y-65124093D01*
X169868570Y-65240574D01*
X169929821Y-65274247D01*
X169933490Y-65275700D01*
X169933495Y-65275702D01*
X170193997Y-65378842D01*
X170223298Y-65390443D01*
X170529025Y-65468940D01*
X170842179Y-65508500D01*
X171157821Y-65508500D01*
X171470975Y-65468940D01*
X171776702Y-65390443D01*
X171806003Y-65378842D01*
X172066505Y-65275702D01*
X172066510Y-65275700D01*
X172070179Y-65274247D01*
X172131430Y-65240574D01*
X172343307Y-65124093D01*
X172343310Y-65124091D01*
X172346779Y-65122184D01*
X172602140Y-64936654D01*
X172832233Y-64720582D01*
X173033432Y-64477375D01*
X173202562Y-64210869D01*
X173204246Y-64207290D01*
X173204250Y-64207283D01*
X173335267Y-63928856D01*
X173335269Y-63928852D01*
X173336956Y-63925266D01*
X173434495Y-63625072D01*
X173493641Y-63315020D01*
X173513460Y-63000000D01*
X173493641Y-62684980D01*
X173434495Y-62374928D01*
X173336956Y-62074734D01*
X173324878Y-62049067D01*
X173204250Y-61792717D01*
X173204246Y-61792710D01*
X173202562Y-61789131D01*
X173033432Y-61522625D01*
X172882822Y-61340569D01*
X172855653Y-61307728D01*
X177576114Y-61307728D01*
X177576166Y-61307973D01*
X177638898Y-61511883D01*
X177643119Y-61522229D01*
X177740971Y-61711814D01*
X177746957Y-61721245D01*
X177876832Y-61890501D01*
X177884393Y-61898724D01*
X178042194Y-62042312D01*
X178051094Y-62049067D01*
X178231815Y-62162434D01*
X178241781Y-62167511D01*
X178439714Y-62247080D01*
X178450429Y-62250315D01*
X178660301Y-62293777D01*
X178669438Y-62294980D01*
X178719990Y-62297895D01*
X178723637Y-62298000D01*
X179537885Y-62298000D01*
X179553124Y-62293525D01*
X179554329Y-62292135D01*
X179556000Y-62284452D01*
X179556000Y-62279885D01*
X180064000Y-62279885D01*
X180068475Y-62295124D01*
X180069865Y-62296329D01*
X180077548Y-62298000D01*
X180864175Y-62298000D01*
X180869770Y-62297751D01*
X181028078Y-62283622D01*
X181039092Y-62281640D01*
X181244860Y-62225349D01*
X181255341Y-62221451D01*
X181447903Y-62129603D01*
X181457516Y-62123918D01*
X181630767Y-61999425D01*
X181639233Y-61992117D01*
X181787692Y-61838918D01*
X181794735Y-61830221D01*
X181913719Y-61653156D01*
X181919105Y-61643358D01*
X182004857Y-61448010D01*
X182008422Y-61437418D01*
X182038624Y-61311616D01*
X182037919Y-61297530D01*
X182029040Y-61294000D01*
X180082115Y-61294000D01*
X180066876Y-61298475D01*
X180065671Y-61299865D01*
X180064000Y-61307548D01*
X180064000Y-62279885D01*
X179556000Y-62279885D01*
X179556000Y-61312115D01*
X179551525Y-61296876D01*
X179550135Y-61295671D01*
X179542452Y-61294000D01*
X177591589Y-61294000D01*
X177577607Y-61298105D01*
X177576114Y-61307728D01*
X172855653Y-61307728D01*
X172834758Y-61282470D01*
X172834757Y-61282469D01*
X172832233Y-61279418D01*
X172813024Y-61261379D01*
X172775883Y-61226502D01*
X172602140Y-61063346D01*
X172346779Y-60877816D01*
X172179768Y-60786000D01*
X172147725Y-60768384D01*
X177581376Y-60768384D01*
X177582081Y-60782470D01*
X177590960Y-60786000D01*
X179537885Y-60786000D01*
X179553124Y-60781525D01*
X179554329Y-60780135D01*
X179556000Y-60772452D01*
X179556000Y-60767885D01*
X180064000Y-60767885D01*
X180068475Y-60783124D01*
X180069865Y-60784329D01*
X180077548Y-60786000D01*
X182028411Y-60786000D01*
X182042393Y-60781895D01*
X182043886Y-60772272D01*
X182043834Y-60772027D01*
X181981102Y-60568117D01*
X181976881Y-60557771D01*
X181879029Y-60368186D01*
X181873043Y-60358755D01*
X181743168Y-60189499D01*
X181735607Y-60181276D01*
X181577806Y-60037688D01*
X181568906Y-60030933D01*
X181388185Y-59917566D01*
X181378219Y-59912489D01*
X181180286Y-59832920D01*
X181169571Y-59829685D01*
X180959699Y-59786223D01*
X180950562Y-59785020D01*
X180900010Y-59782105D01*
X180896363Y-59782000D01*
X180082115Y-59782000D01*
X180066876Y-59786475D01*
X180065671Y-59787865D01*
X180064000Y-59795548D01*
X180064000Y-60767885D01*
X179556000Y-60767885D01*
X179556000Y-59800115D01*
X179551525Y-59784876D01*
X179550135Y-59783671D01*
X179542452Y-59782000D01*
X178755825Y-59782000D01*
X178750230Y-59782249D01*
X178591922Y-59796378D01*
X178580908Y-59798360D01*
X178375140Y-59854651D01*
X178364659Y-59858549D01*
X178172097Y-59950397D01*
X178162484Y-59956082D01*
X177989233Y-60080575D01*
X177980767Y-60087883D01*
X177832308Y-60241082D01*
X177825265Y-60249779D01*
X177706281Y-60426844D01*
X177700895Y-60436642D01*
X177615143Y-60631990D01*
X177611578Y-60642582D01*
X177581376Y-60768384D01*
X172147725Y-60768384D01*
X172073648Y-60727660D01*
X172073647Y-60727659D01*
X172070179Y-60725753D01*
X172066510Y-60724300D01*
X172066505Y-60724298D01*
X171780372Y-60611010D01*
X171780371Y-60611010D01*
X171776702Y-60609557D01*
X171470975Y-60531060D01*
X171157821Y-60491500D01*
X170842179Y-60491500D01*
X170529025Y-60531060D01*
X170223298Y-60609557D01*
X170219629Y-60611010D01*
X170219628Y-60611010D01*
X169933495Y-60724298D01*
X169933490Y-60724300D01*
X169929821Y-60725753D01*
X169926353Y-60727659D01*
X169926352Y-60727660D01*
X169820233Y-60786000D01*
X169653221Y-60877816D01*
X169397860Y-61063346D01*
X169224117Y-61226502D01*
X169186977Y-61261379D01*
X169167767Y-61279418D01*
X169165243Y-61282469D01*
X169165242Y-61282470D01*
X169117178Y-61340569D01*
X168966568Y-61522625D01*
X168797438Y-61789131D01*
X168795754Y-61792710D01*
X168795750Y-61792717D01*
X168675122Y-62049067D01*
X168663044Y-62074734D01*
X168565505Y-62374928D01*
X168506359Y-62684980D01*
X168486540Y-63000000D01*
X166523146Y-63000000D01*
X166438261Y-62886739D01*
X166321705Y-62799385D01*
X166185316Y-62748255D01*
X166123134Y-62741500D01*
X156626866Y-62741500D01*
X156564684Y-62748255D01*
X156428295Y-62799385D01*
X156311739Y-62886739D01*
X156224385Y-63003295D01*
X156173255Y-63139684D01*
X156166500Y-63201866D01*
X156166500Y-67015500D01*
X156146498Y-67083621D01*
X156092842Y-67130114D01*
X156040500Y-67141500D01*
X155051536Y-67141500D01*
X154983415Y-67121498D01*
X154936922Y-67067842D01*
X154926818Y-66997568D01*
X154950711Y-66939934D01*
X154970229Y-66913892D01*
X154970230Y-66913890D01*
X154975615Y-66906705D01*
X155026745Y-66770316D01*
X155033500Y-66708134D01*
X155033500Y-65511866D01*
X155026745Y-65449684D01*
X154975615Y-65313295D01*
X154888261Y-65196739D01*
X154771705Y-65109385D01*
X154635316Y-65058255D01*
X154573134Y-65051500D01*
X153354517Y-65051500D01*
X153286396Y-65031498D01*
X153262969Y-65012073D01*
X153241154Y-64989005D01*
X153241152Y-64989003D01*
X153237668Y-64985319D01*
X153173368Y-64936158D01*
X153048846Y-64840953D01*
X153048842Y-64840950D01*
X153044826Y-64837880D01*
X152934130Y-64778525D01*
X152835352Y-64725561D01*
X152830891Y-64723169D01*
X152601369Y-64644138D01*
X152486546Y-64624305D01*
X152366074Y-64603496D01*
X152366068Y-64603495D01*
X152362164Y-64602821D01*
X152358203Y-64602641D01*
X152358202Y-64602641D01*
X152334494Y-64601564D01*
X152334475Y-64601564D01*
X152333075Y-64601500D01*
X149787031Y-64601500D01*
X149718910Y-64581498D01*
X149697936Y-64564595D01*
X147695405Y-62562064D01*
X147661379Y-62499752D01*
X147658500Y-62472969D01*
X147658500Y-61924600D01*
X147649610Y-61838918D01*
X147648238Y-61825692D01*
X147648237Y-61825688D01*
X147647526Y-61818834D01*
X147591550Y-61651054D01*
X147498478Y-61500652D01*
X147373303Y-61375695D01*
X147367072Y-61371854D01*
X147228968Y-61286725D01*
X147228966Y-61286724D01*
X147222738Y-61282885D01*
X147142995Y-61256436D01*
X147061389Y-61229368D01*
X147061387Y-61229368D01*
X147054861Y-61227203D01*
X147048025Y-61226503D01*
X147048022Y-61226502D01*
X147004969Y-61222091D01*
X146950400Y-61216500D01*
X146402031Y-61216500D01*
X146333910Y-61196498D01*
X146312936Y-61179595D01*
X143856436Y-58723095D01*
X143822410Y-58660783D01*
X143827475Y-58589968D01*
X143870022Y-58533132D01*
X143936542Y-58508321D01*
X143945531Y-58508000D01*
X192366000Y-58508000D01*
X192434121Y-58528002D01*
X192480614Y-58581658D01*
X192492000Y-58634000D01*
X192492000Y-97366000D01*
X192471998Y-97434121D01*
X192418342Y-97480614D01*
X192366000Y-97492000D01*
X93634000Y-97492000D01*
X93565879Y-97471998D01*
X93519386Y-97418342D01*
X93508000Y-97366000D01*
X93508000Y-93000000D01*
X115486540Y-93000000D01*
X115506359Y-93315020D01*
X115565505Y-93625072D01*
X115566732Y-93628848D01*
X115658970Y-93912726D01*
X115663044Y-93925266D01*
X115664731Y-93928852D01*
X115664733Y-93928856D01*
X115795750Y-94207283D01*
X115795754Y-94207290D01*
X115797438Y-94210869D01*
X115966568Y-94477375D01*
X116167767Y-94720582D01*
X116397860Y-94936654D01*
X116653221Y-95122184D01*
X116929821Y-95274247D01*
X116933490Y-95275700D01*
X116933495Y-95275702D01*
X117219628Y-95388990D01*
X117223298Y-95390443D01*
X117529025Y-95468940D01*
X117842179Y-95508500D01*
X118157821Y-95508500D01*
X118470975Y-95468940D01*
X118776702Y-95390443D01*
X118780372Y-95388990D01*
X119066505Y-95275702D01*
X119066510Y-95275700D01*
X119070179Y-95274247D01*
X119346779Y-95122184D01*
X119602140Y-94936654D01*
X119832233Y-94720582D01*
X120033432Y-94477375D01*
X120202562Y-94210869D01*
X120204246Y-94207290D01*
X120204250Y-94207283D01*
X120335267Y-93928856D01*
X120335269Y-93928852D01*
X120336956Y-93925266D01*
X120341031Y-93912726D01*
X120370479Y-93822095D01*
X138342001Y-93822095D01*
X138342338Y-93828614D01*
X138352257Y-93924206D01*
X138355149Y-93937600D01*
X138406588Y-94091784D01*
X138412761Y-94104962D01*
X138498063Y-94242807D01*
X138507099Y-94254208D01*
X138621829Y-94368739D01*
X138633240Y-94377751D01*
X138771243Y-94462816D01*
X138784424Y-94468963D01*
X138938710Y-94520138D01*
X138952086Y-94523005D01*
X139046438Y-94532672D01*
X139052854Y-94533000D01*
X139615385Y-94533000D01*
X139630624Y-94528525D01*
X139631829Y-94527135D01*
X139633500Y-94519452D01*
X139633500Y-94514884D01*
X140141500Y-94514884D01*
X140145975Y-94530123D01*
X140147365Y-94531328D01*
X140155048Y-94532999D01*
X140722095Y-94532999D01*
X140728614Y-94532662D01*
X140824206Y-94522743D01*
X140837600Y-94519851D01*
X140991784Y-94468412D01*
X141004962Y-94462239D01*
X141142807Y-94376937D01*
X141154208Y-94367901D01*
X141268739Y-94253171D01*
X141277751Y-94241760D01*
X141362816Y-94103757D01*
X141368963Y-94090576D01*
X141420138Y-93936290D01*
X141423005Y-93922914D01*
X141432672Y-93828562D01*
X141433000Y-93822146D01*
X141433000Y-93022115D01*
X141428525Y-93006876D01*
X141427135Y-93005671D01*
X141419452Y-93004000D01*
X140159615Y-93004000D01*
X140144376Y-93008475D01*
X140143171Y-93009865D01*
X140141500Y-93017548D01*
X140141500Y-94514884D01*
X139633500Y-94514884D01*
X139633500Y-93022115D01*
X139629025Y-93006876D01*
X139627635Y-93005671D01*
X139619952Y-93004000D01*
X138360116Y-93004000D01*
X138344877Y-93008475D01*
X138343672Y-93009865D01*
X138342001Y-93017548D01*
X138342001Y-93822095D01*
X120370479Y-93822095D01*
X120433268Y-93628848D01*
X120434495Y-93625072D01*
X120493641Y-93315020D01*
X120513460Y-93000000D01*
X120493641Y-92684980D01*
X120454135Y-92477885D01*
X138342000Y-92477885D01*
X138346475Y-92493124D01*
X138347865Y-92494329D01*
X138355548Y-92496000D01*
X139615385Y-92496000D01*
X139630624Y-92491525D01*
X139631829Y-92490135D01*
X139633500Y-92482452D01*
X139633500Y-92477885D01*
X140141500Y-92477885D01*
X140145975Y-92493124D01*
X140147365Y-92494329D01*
X140155048Y-92496000D01*
X141414884Y-92496000D01*
X141430123Y-92491525D01*
X141431328Y-92490135D01*
X141432999Y-92482452D01*
X141432999Y-91677905D01*
X141432662Y-91671386D01*
X141422743Y-91575794D01*
X141419851Y-91562400D01*
X141368412Y-91408216D01*
X141362239Y-91395038D01*
X141276937Y-91257193D01*
X141267901Y-91245792D01*
X141153171Y-91131261D01*
X141141760Y-91122249D01*
X141003757Y-91037184D01*
X140990576Y-91031037D01*
X140836290Y-90979862D01*
X140822914Y-90976995D01*
X140728562Y-90967328D01*
X140722145Y-90967000D01*
X140159615Y-90967000D01*
X140144376Y-90971475D01*
X140143171Y-90972865D01*
X140141500Y-90980548D01*
X140141500Y-92477885D01*
X139633500Y-92477885D01*
X139633500Y-90985116D01*
X139629025Y-90969877D01*
X139627635Y-90968672D01*
X139619952Y-90967001D01*
X139052905Y-90967001D01*
X139046386Y-90967338D01*
X138950794Y-90977257D01*
X138937400Y-90980149D01*
X138783216Y-91031588D01*
X138770038Y-91037761D01*
X138632193Y-91123063D01*
X138620792Y-91132099D01*
X138506261Y-91246829D01*
X138497249Y-91258240D01*
X138412184Y-91396243D01*
X138406037Y-91409424D01*
X138354862Y-91563710D01*
X138351995Y-91577086D01*
X138342328Y-91671438D01*
X138342000Y-91677855D01*
X138342000Y-92477885D01*
X120454135Y-92477885D01*
X120434495Y-92374928D01*
X120336956Y-92074734D01*
X120296656Y-91989092D01*
X120204250Y-91792717D01*
X120204246Y-91792710D01*
X120202562Y-91789131D01*
X120033432Y-91522625D01*
X119832233Y-91279418D01*
X119602140Y-91063346D01*
X119346779Y-90877816D01*
X119296463Y-90850154D01*
X119073648Y-90727660D01*
X119073647Y-90727659D01*
X119070179Y-90725753D01*
X119066510Y-90724300D01*
X119066505Y-90724298D01*
X118780372Y-90611010D01*
X118780371Y-90611010D01*
X118776702Y-90609557D01*
X118470975Y-90531060D01*
X118157821Y-90491500D01*
X117842179Y-90491500D01*
X117529025Y-90531060D01*
X117223298Y-90609557D01*
X117219629Y-90611010D01*
X117219628Y-90611010D01*
X116933495Y-90724298D01*
X116933490Y-90724300D01*
X116929821Y-90725753D01*
X116926353Y-90727659D01*
X116926352Y-90727660D01*
X116703538Y-90850154D01*
X116653221Y-90877816D01*
X116397860Y-91063346D01*
X116167767Y-91279418D01*
X115966568Y-91522625D01*
X115797438Y-91789131D01*
X115795754Y-91792710D01*
X115795750Y-91792717D01*
X115703344Y-91989092D01*
X115663044Y-92074734D01*
X115565505Y-92374928D01*
X115506359Y-92684980D01*
X115486540Y-93000000D01*
X93508000Y-93000000D01*
X93508000Y-92194669D01*
X101492001Y-92194669D01*
X101492371Y-92201490D01*
X101497895Y-92252352D01*
X101501521Y-92267604D01*
X101546676Y-92388054D01*
X101555214Y-92403649D01*
X101631715Y-92505724D01*
X101644276Y-92518285D01*
X101746351Y-92594786D01*
X101761946Y-92603324D01*
X101882394Y-92648478D01*
X101897649Y-92652105D01*
X101948514Y-92657631D01*
X101955328Y-92658000D01*
X103627885Y-92658000D01*
X103643124Y-92653525D01*
X103644329Y-92652135D01*
X103646000Y-92644452D01*
X103646000Y-90522115D01*
X103641525Y-90506876D01*
X103640135Y-90505671D01*
X103632452Y-90504000D01*
X101510116Y-90504000D01*
X101494877Y-90508475D01*
X101493672Y-90509865D01*
X101492001Y-90517548D01*
X101492001Y-92194669D01*
X93508000Y-92194669D01*
X93508000Y-89977885D01*
X101492000Y-89977885D01*
X101496475Y-89993124D01*
X101497865Y-89994329D01*
X101505548Y-89996000D01*
X103627885Y-89996000D01*
X103643124Y-89991525D01*
X103644329Y-89990135D01*
X103646000Y-89982452D01*
X103646000Y-87860116D01*
X103641525Y-87844877D01*
X103640135Y-87843672D01*
X103632452Y-87842001D01*
X101955331Y-87842001D01*
X101948510Y-87842371D01*
X101897648Y-87847895D01*
X101882396Y-87851521D01*
X101761946Y-87896676D01*
X101746351Y-87905214D01*
X101644276Y-87981715D01*
X101631715Y-87994276D01*
X101555214Y-88096351D01*
X101546676Y-88111946D01*
X101501522Y-88232394D01*
X101497895Y-88247649D01*
X101492369Y-88298514D01*
X101492000Y-88305328D01*
X101492000Y-89977885D01*
X93508000Y-89977885D01*
X93508000Y-68610915D01*
X96642001Y-68610915D01*
X96642061Y-68613672D01*
X96644601Y-68671855D01*
X96645317Y-68678972D01*
X96687999Y-68948453D01*
X96689978Y-68957023D01*
X96769504Y-69217143D01*
X96772655Y-69225353D01*
X96887613Y-69471882D01*
X96891876Y-69479572D01*
X97040024Y-69707700D01*
X97045314Y-69714719D01*
X97223783Y-69920024D01*
X97229976Y-69926217D01*
X97435281Y-70104686D01*
X97442300Y-70109976D01*
X97670428Y-70258124D01*
X97678118Y-70262387D01*
X97924647Y-70377345D01*
X97932857Y-70380496D01*
X98192977Y-70460022D01*
X98201547Y-70462001D01*
X98471044Y-70504685D01*
X98478128Y-70505399D01*
X98536331Y-70507940D01*
X98539083Y-70508000D01*
X99877885Y-70508000D01*
X99893124Y-70503525D01*
X99894329Y-70502135D01*
X99896000Y-70494452D01*
X99896000Y-67272115D01*
X99891525Y-67256876D01*
X99890135Y-67255671D01*
X99882452Y-67254000D01*
X96660116Y-67254000D01*
X96644877Y-67258475D01*
X96643672Y-67259865D01*
X96642001Y-67267548D01*
X96642001Y-68610915D01*
X93508000Y-68610915D01*
X93508000Y-66727885D01*
X96642000Y-66727885D01*
X96646475Y-66743124D01*
X96647865Y-66744329D01*
X96655548Y-66746000D01*
X99877885Y-66746000D01*
X99893124Y-66741525D01*
X99894329Y-66740135D01*
X99896000Y-66732452D01*
X99896000Y-63510116D01*
X99891525Y-63494877D01*
X99890135Y-63493672D01*
X99882452Y-63492001D01*
X98539086Y-63492001D01*
X98536328Y-63492061D01*
X98478145Y-63494601D01*
X98471028Y-63495317D01*
X98201547Y-63537999D01*
X98192977Y-63539978D01*
X97932857Y-63619504D01*
X97924647Y-63622655D01*
X97678118Y-63737613D01*
X97670428Y-63741876D01*
X97442300Y-63890024D01*
X97435281Y-63895314D01*
X97229976Y-64073783D01*
X97223783Y-64079976D01*
X97045314Y-64285281D01*
X97040024Y-64292300D01*
X96891876Y-64520428D01*
X96887613Y-64528118D01*
X96772655Y-64774647D01*
X96769504Y-64782857D01*
X96689978Y-65042977D01*
X96687999Y-65051547D01*
X96645315Y-65321044D01*
X96644601Y-65328128D01*
X96642060Y-65386331D01*
X96642000Y-65389083D01*
X96642000Y-66727885D01*
X93508000Y-66727885D01*
X93508000Y-63000000D01*
X115486540Y-63000000D01*
X115506359Y-63315020D01*
X115565505Y-63625072D01*
X115663044Y-63925266D01*
X115664731Y-63928852D01*
X115664733Y-63928856D01*
X115795750Y-64207283D01*
X115795754Y-64207290D01*
X115797438Y-64210869D01*
X115966568Y-64477375D01*
X116167767Y-64720582D01*
X116397860Y-64936654D01*
X116653221Y-65122184D01*
X116656690Y-65124091D01*
X116656693Y-65124093D01*
X116868570Y-65240574D01*
X116929821Y-65274247D01*
X116933490Y-65275700D01*
X116933495Y-65275702D01*
X117193997Y-65378842D01*
X117223298Y-65390443D01*
X117529025Y-65468940D01*
X117842179Y-65508500D01*
X118157821Y-65508500D01*
X118470975Y-65468940D01*
X118776702Y-65390443D01*
X118806003Y-65378842D01*
X119066505Y-65275702D01*
X119066510Y-65275700D01*
X119070179Y-65274247D01*
X119131430Y-65240574D01*
X119343307Y-65124093D01*
X119343310Y-65124091D01*
X119346779Y-65122184D01*
X119602140Y-64936654D01*
X119832233Y-64720582D01*
X120033432Y-64477375D01*
X120202562Y-64210869D01*
X120204246Y-64207290D01*
X120204250Y-64207283D01*
X120335267Y-63928856D01*
X120335269Y-63928852D01*
X120336956Y-63925266D01*
X120434495Y-63625072D01*
X120493641Y-63315020D01*
X120513460Y-63000000D01*
X120493641Y-62684980D01*
X120434495Y-62374928D01*
X120336956Y-62074734D01*
X120324878Y-62049067D01*
X120204250Y-61792717D01*
X120204246Y-61792710D01*
X120202562Y-61789131D01*
X120033432Y-61522625D01*
X119882822Y-61340569D01*
X119834758Y-61282470D01*
X119834757Y-61282469D01*
X119832233Y-61279418D01*
X119813024Y-61261379D01*
X119775883Y-61226502D01*
X119602140Y-61063346D01*
X119346779Y-60877816D01*
X119179768Y-60786000D01*
X119073648Y-60727660D01*
X119073647Y-60727659D01*
X119070179Y-60725753D01*
X119066510Y-60724300D01*
X119066505Y-60724298D01*
X118780372Y-60611010D01*
X118780371Y-60611010D01*
X118776702Y-60609557D01*
X118470975Y-60531060D01*
X118157821Y-60491500D01*
X117842179Y-60491500D01*
X117529025Y-60531060D01*
X117223298Y-60609557D01*
X117219629Y-60611010D01*
X117219628Y-60611010D01*
X116933495Y-60724298D01*
X116933490Y-60724300D01*
X116929821Y-60725753D01*
X116926353Y-60727659D01*
X116926352Y-60727660D01*
X116820233Y-60786000D01*
X116653221Y-60877816D01*
X116397860Y-61063346D01*
X116224117Y-61226502D01*
X116186977Y-61261379D01*
X116167767Y-61279418D01*
X116165243Y-61282469D01*
X116165242Y-61282470D01*
X116117178Y-61340569D01*
X115966568Y-61522625D01*
X115797438Y-61789131D01*
X115795754Y-61792710D01*
X115795750Y-61792717D01*
X115675122Y-62049067D01*
X115663044Y-62074734D01*
X115565505Y-62374928D01*
X115506359Y-62684980D01*
X115486540Y-63000000D01*
X93508000Y-63000000D01*
X93508000Y-58634000D01*
X93528002Y-58565879D01*
X93581658Y-58519386D01*
X93634000Y-58508000D01*
X136486431Y-58508000D01*
X136554552Y-58528002D01*
G37*
%TD.AperFunction*%
M02*
