M48
; DRILL file {KiCad (6.0.2)} date Thu Feb 24 16:16:54 2022
; FORMAT={-:-/ absolute / metric / decimal}
; #@! TF.CreationDate,2022-02-24T16:16:54+02:00
; #@! TF.GenerationSoftware,Kicad,Pcbnew,(6.0.2)
; #@! TF.FileFunction,Plated,1,2,PTH
FMAT,2
METRIC
; #@! TA.AperFunction,Plated,PTH,ComponentDrill
T1C0.800
; #@! TA.AperFunction,Plated,PTH,ComponentDrill
T2C1.000
; #@! TA.AperFunction,Plated,PTH,ComponentDrill
T3C1.100
; #@! TA.AperFunction,Plated,PTH,ViaDrill
T4C2.500
; #@! TA.AperFunction,Plated,PTH,ComponentDrill
T5C2.700
; #@! TA.AperFunction,Plated,PTH,ComponentDrill
T6C4.500
%
G90
G05
T1
X120.5Y-71.525
X120.5Y-84.225
X125.91Y-71.525
X125.91Y-84.225
T2
X110.2Y-77.025
X110.2Y-79.565
X110.2Y-82.105
X176.79Y-74.985
X176.79Y-77.525
X176.79Y-80.065
T3
X131.25Y-73.765
X131.25Y-83.925
T4
X118.0Y-63.0
X118.0Y-93.0
X171.0Y-63.0
X171.0Y-93.0
T5
X103.9Y-90.25
X108.9Y-90.25
T6
X100.15Y-67.0
X107.35Y-67.0
T2
G00X176.79Y-92.01
M15
G01X176.79Y-89.51
M16
G05
G00X176.81Y-66.99
M15
G01X176.81Y-64.49
M16
G05
G00X178.79Y-86.06
M15
G01X180.79Y-86.06
M16
G05
G00X178.81Y-61.04
M15
G01X180.81Y-61.04
M16
G05
G00X182.79Y-91.76
M15
G01X182.79Y-89.76
M16
G05
G00X182.81Y-66.74
M15
G01X182.81Y-64.74
M16
G05
T0
M30
